<svg width="55" height="60" viewBox="0 0 55 60" fill="none" xmlns="http://www.w3.org/2000/svg">
<g id="Group">
<g id="Group_2">
<path id="Vector" d="M26.3779 23.7154L28.0834 22.0094L17.474 11.4419C17.2614 11.2287 17.0084 11.0599 16.7298 10.9455C16.4512 10.8312 16.1526 10.7735 15.8515 10.776C15.5503 10.7735 15.2518 10.8312 14.9732 10.9455C14.6946 11.0599 14.4416 11.2287 14.229 11.4419L4.53504 21.0939C4.36752 22.1815 4.28394 23.2804 4.28505 24.3809V24.7139L15.81 13.1889L26.3779 23.7154Z" fill="#00425A"/>
<path id="Vector_2" d="M13.0225 30.1225C13.0225 29.2905 13.605 28.791 14.4375 28.791H17.2659C18.0984 28.791 18.8469 29.2905 18.8469 30.1225V32.993C18.8469 33.118 19.1799 33.2009 19.3879 33.3259C21.3849 34.4494 23.0079 35.1984 24.6719 35.7389V28.708L26.0864 27.418C26.1279 27.2515 25.9199 27.127 26.3364 27.002V26.295L23.0074 29.457C23.0074 29.623 22.6329 29.7065 22.4249 29.7065C22.2169 29.7065 22.0089 29.623 21.8424 29.4565C21.5099 29.124 21.5099 28.6245 21.8424 28.2915L25.6704 24.464L16.5174 15.311C16.3509 15.1445 16.1015 15.061 15.893 15.061C15.6435 15.061 15.4355 15.1445 15.269 15.311L5.534 24.9635V31.8285C5.94949 32.5355 6.116 33.2845 6.449 33.95C8.15449 32.702 10.11 31.662 13.0225 31.5785V30.1225Z" fill="#1F8A70"/>
<path id="Vector_3" d="M42.4788 23.1328C42.3538 23.0078 42.1873 22.9663 42.0208 22.9663C41.8548 22.9663 41.6883 23.0078 41.5633 23.1328L39.1503 25.5043L41.9378 28.2918C42.2708 28.6243 42.2708 29.1238 41.9378 29.4568C41.6048 29.7893 41.1058 29.7893 40.7728 29.4568L37.9853 26.6688L37.4028 27.1683L38.8588 28.7078V33.8668C39.2748 33.8253 39.6913 33.7833 40.1073 33.7833V33.3673C40.1073 32.7848 40.4398 32.5353 41.0223 32.5353H42.9778C43.5603 32.5353 43.8517 32.7853 43.8517 33.3673V34.4073C45.0997 34.8238 46.1398 35.3643 47.0137 35.9888C47.8872 34.5323 48.4282 32.9513 49.2602 31.3288V29.8308L42.4788 23.1328Z" fill="#00425A"/>
<path id="Vector_4" d="M41.9793 20.0123C41.5633 20.0123 41.1473 20.1788 40.8558 20.4698L37.4858 23.8398L38.6508 25.0047L41.9793 21.6763L49.6343 29.3312C49.7592 28.6662 49.8843 28.0002 49.9673 27.3347L43.1023 20.4698C42.9548 20.3229 42.7795 20.2068 42.5867 20.1283C42.3939 20.0497 42.1875 20.0103 41.9793 20.0123Z" fill="#1F8A70"/>
<path id="Vector_5" d="M31.8694 21.843C31.7029 21.843 31.5364 21.8845 31.4119 22.0095L26.0029 27.418L24.6719 28.708V35.7389C24.6719 35.7804 24.8384 35.7804 24.9214 35.8224C25.2959 35.9889 25.6704 36.1549 26.0864 36.3214C27.0014 36.6129 27.9169 36.7794 29.0819 36.7794C29.2899 36.7794 29.6229 36.8209 29.6229 36.8209V32.286C29.6229 31.7035 30.2884 31.2875 30.8294 31.2875H32.7844C33.3674 31.2875 33.7834 31.7035 33.7834 32.286V35.6974C33.7834 35.6144 34.0744 35.5725 34.1994 35.4895C34.4074 35.4065 34.4903 35.2815 34.6983 35.1985C36.1548 34.4495 37.5278 34.0334 38.7758 33.8669V28.708L37.3199 27.1685L32.2439 22.051C32.1189 21.926 32.0359 21.843 31.8694 21.843Z" fill="#BFDB38"/>
<path id="Vector_6" d="M25.6289 24.4639L21.8009 28.2919C21.4684 28.6244 21.4684 29.1239 21.8009 29.4569C21.9674 29.6229 22.1759 29.7064 22.3834 29.7064C22.5914 29.7064 22.9659 29.6229 22.9659 29.4564L26.1279 26.2949L31.8278 20.595L37.9853 26.6689L40.7728 29.4569C41.1058 29.7894 41.6048 29.7894 41.9378 29.4569C42.2708 29.1239 42.2708 28.6244 41.9378 28.2919L39.1503 25.5044L38.6508 25.0049L37.4858 23.8399L32.9929 19.3885C32.6925 19.095 32.2893 18.9307 31.8694 18.9307C31.4494 18.9307 31.0462 19.095 30.7459 19.3885L28.0834 22.0509L26.3774 23.7569L25.6289 24.4639Z" fill="#BFDB38"/>
<path id="Vector_7" d="M27.2099 0.000488279C12.1899 0.000488279 0 12.1904 0 27.2104C0 31.1208 0.831983 34.9068 2.32998 38.2768V38.3603C4.16047 42.5203 6.94796 45.9738 10.4429 48.6783C10.5679 48.8443 10.693 48.9693 10.8175 49.1358C11.0675 49.4688 11.3165 49.7598 11.5245 50.0508C11.8574 50.2173 12.1905 50.3838 12.523 50.5918C13.0639 50.6753 13.5629 50.7998 14.0209 51.0078C14.1459 51.0498 14.2289 51.1328 14.3539 51.1743C14.5204 51.7153 14.6864 52.4222 15.1859 53.0467C15.3524 53.2547 15.5189 53.4212 15.7684 53.6292C15.8099 53.6707 15.8514 53.7122 15.9349 53.7542C16.3094 54.0032 16.7669 54.2532 17.3494 54.4612H18.5559C19.0549 54.4197 19.5129 54.3777 19.9704 54.2947C20.4699 54.2117 21.0104 54.0447 21.5514 53.7952C22.0089 53.6292 22.5084 53.3792 23.0909 53.0882C24.0479 52.5887 25.2544 51.9232 26.8354 51.0497C27.8632 50.459 28.9034 49.8902 29.9554 49.3438C29.9554 49.3438 32.2023 47.9708 30.8709 49.4268L30.7878 49.5103C29.7894 50.5088 27.1679 52.5887 23.1324 54.1282C22.4249 54.3782 21.7174 54.6277 20.9274 54.8772C20.3449 55.0437 19.7624 55.2102 19.1799 55.3347C19.0969 55.5847 19.0134 55.7922 18.9719 56.0007C18.9304 56.0837 18.9304 56.2087 18.9304 56.2917C18.8889 56.5827 18.9304 56.7912 18.9719 56.9572C19.2629 57.7062 20.4279 57.6232 21.5929 57.2487L21.9679 57.1237H22.0089L22.6749 56.9157C22.6749 56.9157 24.7134 56.4167 28.7074 54.4197C29.8308 53.8372 31.1203 53.1712 32.5768 52.3807C32.5768 52.3807 34.6153 51.2578 33.4088 52.4222L33.2838 52.5472C32.7848 52.9632 31.8693 53.5872 30.7044 54.2532C29.0819 55.1682 27.0019 56.1252 24.8384 56.9157C24.0603 57.2031 23.2689 57.453 22.4669 57.6647V57.9142C22.4249 58.1222 22.4249 58.3302 22.4669 58.4967C22.4669 58.6217 22.5084 58.7467 22.5499 58.8297C22.9659 60.0362 24.8384 59.2872 26.3359 58.7047C26.4194 58.6632 26.5024 58.6217 26.6274 58.5797C26.7524 58.5382 26.8769 58.4967 27.0019 58.4137C28.4164 57.8312 30.3719 56.8742 32.9514 55.3762C32.9514 55.3762 34.6983 54.3777 33.6583 55.4182C33.5753 55.5012 33.4918 55.5842 33.3673 55.6677C32.5348 56.3332 30.6213 57.4982 28.6658 58.4137C28.3328 58.5802 27.9584 58.7462 27.6259 58.8712C27.5424 58.9962 27.4594 59.1212 27.4179 59.2457C27.3344 59.4537 27.2929 59.6202 27.3344 59.7447C27.9169 61.0347 36.6543 57.2902 41.3138 51.7982C41.6048 51.4657 41.8963 51.1328 42.1458 50.7583C42.5203 50.2173 42.8948 49.7598 43.2693 49.2608C46.3937 47.0062 49.0031 44.1131 50.9243 40.7733L51.0493 40.6483C51.0493 40.6483 51.0493 40.6068 51.0078 40.6068C51.0493 40.5233 51.0908 40.4818 51.1328 40.3988C51.1743 40.3153 51.2158 40.2323 51.2988 40.1488C53.3788 36.2798 54.5857 31.9113 54.5857 27.2099C54.4192 12.1904 42.2288 0.000488279 27.2099 0.000488279ZM49.9673 27.3349C49.8843 28.0004 49.7593 28.6664 49.6348 29.3319C49.4683 29.9974 49.3018 30.6634 49.0938 31.2869C48.5948 32.9518 47.8873 34.4908 47.0138 35.9468C46.8888 36.1548 46.7638 36.3218 46.6808 36.5293C47.4021 37.0612 48.0834 37.6452 48.7193 38.2768L49.0943 38.6513C48.9693 38.5263 48.8443 38.4013 48.7193 38.3183C48.0473 37.7395 47.323 37.2242 46.5558 36.7793C45.8068 36.3213 44.9333 35.9468 44.0178 35.6558C42.8113 35.2813 41.4383 35.0733 39.9828 35.1983C39.6493 35.2398 39.3578 35.2813 39.0253 35.3233C37.7353 35.5308 36.3213 36.0303 34.8653 36.8208C34.8233 36.8623 34.7818 36.8623 34.7403 36.9038C34.4488 37.0703 34.1993 37.1953 33.9078 37.3613C32.4103 38.1518 31.0788 38.7343 29.8309 39.1923C29.5809 39.2753 29.3734 39.3588 29.1649 39.4418C28.0419 40.0243 26.6274 40.3988 24.9214 40.3568C24.6714 40.3568 24.3804 40.4818 24.0894 40.6068C23.7979 40.7318 23.5484 40.9398 23.2989 41.1893C23.1324 41.3558 23.0074 41.5218 22.9244 41.7303C22.8414 41.9383 22.7579 42.1463 22.7579 42.3953V42.4373C22.7579 42.8533 22.8829 43.2693 23.1739 43.7688C23.2154 43.8518 23.2574 43.9353 23.2989 43.9768C23.5899 44.3513 24.1309 44.4758 24.9214 44.3928C25.6289 44.3098 26.5024 44.1013 27.5424 43.8103H27.7924C28.0834 43.7688 28.4164 43.7273 28.7489 43.6853C29.5814 43.5193 30.4963 43.2693 31.4948 42.8118L30.7048 43.6023C30.2978 44.0138 29.8816 44.4161 29.4564 44.8088L29.3314 44.9338C28.7909 45.3913 28.2084 45.9323 27.5424 46.4728C27.2099 46.7643 26.8354 47.0553 26.4609 47.3468C23.2159 49.8428 19.0969 52.2977 16.0179 51.5488C15.7269 51.4658 15.4354 51.3823 15.1859 51.2578C15.1859 51.2158 15.1859 51.1742 15.1444 51.0912C15.2694 51.1327 15.4354 51.1328 15.5604 51.1743C18.3479 51.4658 21.8009 49.4268 24.6719 47.2218C25.2959 46.7228 25.9199 46.2233 26.5024 45.7243C26.4609 45.6823 26.4194 45.6823 26.4194 45.6408C26.1279 45.3913 25.8369 45.1833 25.5454 44.9338C23.9229 45.1833 22.5914 45.0168 22.2169 44.3928C21.4269 42.9778 21.3019 42.1878 21.5514 41.7303C21.5514 41.6053 21.5929 41.4803 21.5929 41.3973L21.3849 41.1893C21.4684 41.2308 21.5514 41.2308 21.6349 41.2723C21.8009 40.8148 22.1339 40.4403 22.5499 40.1493C22.7579 39.9828 23.0074 39.8993 23.2154 39.8163C23.3819 39.7328 23.5484 39.6913 23.7149 39.6913H23.8814C25.4624 39.6913 26.7934 39.2753 27.8754 38.7343C27.5839 38.7343 27.2929 38.7343 27.0019 38.6928C25.7534 38.6098 24.6719 38.2353 23.7979 37.7778C23.6112 37.7268 23.4301 37.6571 23.2574 37.5698C21.9259 37.1118 20.4699 36.4463 18.8474 35.5723C18.6389 35.4473 18.4309 35.3643 18.2229 35.2398C16.3509 34.1998 14.6034 33.7003 13.0224 33.5753C10.6924 33.3673 8.61245 33.9503 6.90646 34.8653C6.73996 34.5738 6.61547 34.2828 6.44897 33.9503C6.12224 33.2581 5.83055 32.5499 5.57499 31.8283C4.82649 29.5814 4.36847 27.2099 4.32698 24.7134V24.3809C4.32698 23.2574 4.41047 22.1759 4.57697 21.0939C6.11597 10.0269 15.6849 1.45649 27.2099 1.45649C39.8573 1.45649 50.1338 11.7329 50.1338 24.3809C50.1338 25.3794 50.0923 26.3779 49.9673 27.3349Z" fill="#FC7300"/>
</g>
</g>
</svg>
