<?xml version="1.0" encoding="utf-8"?>
<!-- Generator: Adobe Illustrator 16.0.0, SVG Export Plug-In . SVG Version: 6.00 Build 0)  -->
<!DOCTYPE svg PUBLIC "-//W3C//DTD SVG 1.1//EN" "http://www.w3.org/Graphics/SVG/1.1/DTD/svg11.dtd">
<svg version="1.1" id="Layer_1" xmlns="http://www.w3.org/2000/svg" xmlns:xlink="http://www.w3.org/1999/xlink" x="0px" y="0px"
	 width="600px" height="600px" viewBox="3.5 43.136 600 600" enable-background="new 3.5 43.136 600 600" xml:space="preserve">
<g>
	<g>
		<path fill="none" d="M485.973,379.627c0-5.825-3.197-8.32-9.601-8.32h-21.49c-6.406,0-10.066,2.5-10.066,8.32v4.16
			c-4.572,0-7.772,0.42-10.977,0.835c-14.179,1.666-29.723,5.825-46.187,13.315c-1.831,0.829-4.573,1.659-6.404,2.91
			c-1.373,0.829-5.028,1.249-5.028,2.079v-34.114c0-5.825-4.572-9.985-10.976-9.985h-21.489c-6.408,0-13.266,4.16-13.266,9.985
			v44.935c0,0-3.661,0-5.948-0.42c-12.806,0.42-23.78-1.666-33.381-4.574c-4.457-1.234-8.751-2.909-12.806-4.995
			c-0.912-0.415-1.375-0.415-2.287-0.831c-17.378-5.409-36.129-12.899-58.08-24.13c-2.287-1.25-6.404-2.08-6.404-3.33v-28.705
			c0-8.32-8.226-13.315-17.378-13.315H163.11c-9.145,0-15.547,4.995-15.547,13.315v14.975c-32.015,0.835-53.51,11.235-72.256,23.715
			c1.375,2.915,2.748,5.825,4.573,9.15c18.752-9.15,41.16-14.975,66.771-12.895c17.834,1.25,36.581,6.245,57.157,16.646
			c2.291,1.25,4.579,2.08,6.408,3.324c17.834,8.74,34.295,14.98,48.475,19.976c1.831,0.829,4.117,1.25,5.947,2.08
			c9.602,4.574,21.489,7.899,35.212,9.149c3.197,0.415,6.401,0.415,9.601,0.415c-11.889,5.41-26.067,9.569-43.901,9.569h-1.83
			c-1.374,0-3.198,0.415-5.485,1.251c-2.528,0.94-4.975,2.055-7.321,3.33c-4.11,2.495-8.227,6.239-10.057,11.229
			c-0.918-0.415-1.83-0.415-2.748-0.829l2.291,2.079c-0.461,1.25-0.461,2.08-0.461,3.33c-2.742,4.575-1.374,12.48,7.321,26.625
			c3.654,6.24,18.747,7.899,36.585,5.41c3.2,2.079,6.398,4.574,9.603,7.069c0.456,0.415,0.913,0.415,0.913,0.835
			c-6.403,4.99-12.806,9.985-20.115,14.975c-31.558,22.051-69.518,42.44-100.158,39.525c-1.83,0-3.198-0.415-4.572-0.829
			c0,0.414,0,0.829,0.456,1.664c3.204,1.25,5.946,2.495,9.145,2.91c33.844,7.49,79.119-17.061,114.788-42.02
			c4.123-2.915,8.233-5.825,11.893-8.74c7.316-5.405,13.718-10.815,19.665-15.39l1.374-1.25c4.672-3.928,9.246-7.95,13.718-12.065
			l8.684-7.905c-10.97,4.16-21.032,7.076-30.178,8.735c-3.66,0.42-7.321,0.835-10.52,1.251h-2.748
			c-11.431,2.908-21.033,5.408-28.81,5.824c-8.683,0.83-15.092,0-17.834-4.16c-0.457-0.835-0.913-1.664-1.374-2.08
			c-3.199-4.993-5.029-9.57-4.573-13.314v-0.415c0-2.499,0.918-4.575,1.83-6.655c0.918-2.084,2.749-3.749,4.123-5.409
			c2.736-2.499,5.484-4.161,8.683-5.826c3.204-1.664,6.858-2.5,9.146-2.5c18.751,0.421,34.3-3.325,46.648-9.15
			c2.286-0.829,5.028-1.664,7.315-2.499c13.718-4.575,28.358-10.399,44.82-18.301c2.742-1.249,5.941-2.914,9.146-4.579
			c0.456-0.415,0.912-0.415,1.373-0.83c14.306-7.1,29.729-12.151,45.726-14.979c3.66-0.416,6.864-0.83,10.52-1.25
			c16.011-1.25,31.102,0.834,44.362,4.579c9.722,2.807,19.078,6.575,27.898,11.235c8.433,4.449,16.395,9.602,23.78,15.39
			c1.375,1.25,2.743,2.501,4.112,3.33l-4.112-3.745c-6.974-6.331-14.466-12.173-22.412-17.474c1.374-2.081,1.829-3.745,2.748-5.826
			c-9.607-6.239-20.582-11.65-34.299-15.81v-9.985H485.973z"/>
		<path fill="none" d="M171.804,198.648c1.824-1.665,4.567-2.5,6.854-2.5c2.747,0,5.034,0.835,6.858,2.5l100.614,91.53l8.227-7.49
			l-115.7-104.845L51.525,293.093c0.456,24.959,4.572,48.675,13.717,71.145v-68.65l106.556-96.939H171.804z"/>
		<path fill="none" d="M428.81,296.008l5.489,4.99l26.067-23.715c1.376-1.25,3.199-1.665,5.029-1.665s4.118,0.415,5.484,1.665
			l74.548,66.979v14.565c0-6.66,3.199-12.9,5.029-19.555l-84.604-76.55l-37.044,33.28V296.008z"/>
		<path fill="none" d="M293.901,308.902v7.07c-4.573,1.25-1.83,2.915-2.287,4.16l58.993-54.085c1.375-1.25,2.749-1.665,4.573-1.665
			c1.83,0,3.204,0.415,4.572,1.665l56.707,51.589l5.49-4.995l-66.309-60.739L293.901,308.902L293.901,308.902z"/>
		<path fill="none" d="M303.508,60.519c-127.137,0-231.861,85.29-249.239,196.374l106.555-96.939
			c4.722-4.306,11.149-6.702,17.834-6.651c6.685-0.051,13.112,2.345,17.834,6.651L313.11,266.048l29.266-26.626
			c6.866-6.104,17.832-6.104,24.698,0l48.93,44.516l37.044-33.7c6.864-6.104,17.832-6.104,24.698,0l75.459,68.65
			c1.367-9.57,2.28-19.555,2.28-29.125C555.485,163.284,442.983,60.518,303.508,60.519L303.508,60.519z"/>
		<path fill="#00425A" d="M294.363,283.108l18.747-17.06L196.492,160.374c-4.721-4.31-11.148-6.71-17.834-6.66
			c-6.688-0.05-13.115,2.351-17.834,6.66L54.269,256.893c-1.842,10.876-2.759,21.866-2.748,32.87v3.33l126.681-115.25
			l116.156,105.265H294.363z"/>
		<path fill="#1F8A70" d="M147.561,347.178c0-8.32,6.404-13.315,15.554-13.315h31.09c9.15,0,17.378,4.995,17.378,13.315v28.704
			c0,1.25,3.661,2.08,5.946,3.331c21.952,11.235,39.792,18.725,58.082,24.13v-70.31l15.546-12.9c0.456-1.666-1.829-2.91,2.749-4.16
			v-7.07l-36.592,31.62c0,1.66-4.117,2.495-6.402,2.495c-2.287,0-4.572-0.835-6.404-2.5c-3.653-3.325-3.653-8.32,0-11.65
			l42.077-38.275l-100.608-91.529c-1.829-1.665-4.573-2.5-6.864-2.5c-2.742,0-5.029,0.835-6.858,2.5L65.249,295.587v68.65
			c4.567,7.069,6.398,14.559,10.059,21.214c18.746-12.48,40.241-22.88,72.253-23.715V347.178z"/>
		<path fill="#00425A" d="M471.343,277.283c-1.372-1.25-3.204-1.665-5.033-1.665c-1.824,0-3.655,0.415-5.028,1.665l-26.523,23.715
			l30.64,27.875c3.66,3.325,3.66,8.32,0,11.65c-3.66,3.325-9.146,3.325-12.806,0l-30.64-27.88l-6.403,4.995l16.005,15.396v51.589
			c4.572-0.415,9.149-0.835,13.722-0.835v-4.16c0-5.825,3.656-8.32,10.058-8.32h21.495c6.403,0,9.607,2.5,9.607,8.32v10.4
			c13.718,4.165,25.148,9.569,34.757,15.815c9.601-14.565,15.546-30.375,24.691-46.601v-14.98L471.343,277.283z"/>
		<path fill="#1F8A70" d="M465.854,246.078c-4.572,0-9.147,1.665-12.35,4.575l-37.044,33.7l12.807,11.65l36.587-33.285
			l84.143,76.549c1.372-6.649,2.748-13.31,3.66-19.965l-75.461-68.649C474.922,247.685,470.475,246.038,465.854,246.078
			L465.854,246.078z"/>
		<path fill="#BFDB38" d="M354.725,264.383c-1.83,0-3.661,0.415-5.028,1.665l-59.455,54.085l-14.63,12.9v70.31
			c0,0.415,1.83,0.415,2.743,0.834c4.117,1.666,8.232,3.325,12.806,4.99c10.057,2.915,20.119,4.58,32.925,4.58
			c2.287,0,5.947,0.415,5.947,0.415v-45.35c0-5.825,7.314-9.985,13.262-9.985h21.487c6.41,0,10.981,4.16,10.981,9.985v34.114
			c0-0.83,3.201-1.25,4.573-2.079c2.288-0.83,3.199-2.081,5.485-2.91c16.009-7.49,31.103-11.65,44.819-13.315v-51.589
			l-16.004-15.396l-55.796-51.174C357.468,265.213,356.557,264.383,354.725,264.383L354.725,264.383z"/>
		<path fill="#BFDB38" d="M286.13,290.592l-42.077,38.28c-3.654,3.325-3.654,8.32,0,11.65c1.83,1.66,4.123,2.495,6.403,2.495
			c2.286,0,6.401-0.835,6.401-2.5l34.756-31.615l62.655-57l67.682,60.739l30.639,27.88c3.661,3.325,9.146,3.325,12.807,0
			c3.66-3.33,3.66-8.325,0-11.65l-30.641-27.875l-5.488-4.995l-12.807-11.65l-49.386-44.515c-6.867-6.104-17.834-6.104-24.698,0
			l-29.268,26.625l-18.751,17.06l-8.229,7.069H286.13z"/>
		<path fill="#FC7300" d="M303.508,45.958c-165.097,0-299.088,121.9-299.088,272.1c0,39.104,9.145,76.965,25.61,110.664v0.836
			c20.122,41.599,50.762,76.134,89.178,103.179c1.373,1.66,2.748,2.91,4.116,4.575c2.749,3.33,5.485,6.24,7.771,9.149
			c3.661,1.666,7.32,3.33,10.976,5.41c5.946,0.835,11.432,2.081,16.466,4.16c1.373,0.421,2.287,1.25,3.66,1.665
			c1.829,5.41,3.655,12.479,9.146,18.725c1.83,2.08,3.66,3.745,6.401,5.826c0.457,0.415,0.914,0.829,1.831,1.249
			c4.117,2.49,9.146,4.99,15.547,7.07h13.263c5.485-0.415,10.519-0.834,15.547-1.665c5.491-0.83,11.432-2.499,17.378-4.995
			c5.029-1.659,10.518-4.16,16.922-7.069c10.518-4.995,23.781-11.65,41.158-20.385c11.298-5.908,22.731-11.597,34.296-17.061
			c0,0,24.698-13.729,10.063,0.83l-0.914,0.835c-10.974,9.985-39.789,30.785-84.146,46.18c-7.777,2.5-15.553,4.995-24.237,7.49
			c-6.403,1.664-12.807,3.33-19.208,4.574c-0.913,2.5-1.831,4.575-2.288,6.661c-0.457,0.829-0.457,2.079-0.457,2.909
			c-0.456,2.909,0,4.994,0.457,6.655c3.199,7.489,16.005,6.659,28.811,2.915l4.121-1.251h0.452l7.321-2.079
			c0,0,22.407-4.99,66.308-24.96c12.349-5.825,26.522-12.485,42.532-20.39c0,0,22.408-11.23,9.146,0.414l-1.376,1.251
			c-5.484,4.159-15.547,10.399-28.353,17.06c-17.834,9.15-40.697,18.72-64.479,26.625c-8.552,2.874-17.251,5.373-26.067,7.489v2.495
			c-0.461,2.08-0.461,4.161,0,5.825c0,1.25,0.456,2.5,0.914,3.33c4.571,12.065,25.155,4.575,41.615-1.25
			c0.918-0.415,1.83-0.83,3.204-1.25c1.374-0.415,2.743-0.83,4.117-1.66c15.548-5.825,37.042-15.395,65.396-30.375
			c0,0,19.203-9.984,7.772,0.421c-0.915,0.829-1.832,1.659-3.199,2.494c-9.151,6.655-30.185,18.306-51.679,27.46
			c-3.66,1.666-7.777,3.325-11.432,4.574c-0.918,1.251-1.831,2.502-2.287,3.746c-0.917,2.079-1.374,3.745-0.917,4.989
			c6.402,12.9,102.443-24.544,153.661-79.464c3.196-3.325,6.401-6.655,9.145-10.4c4.116-5.409,8.232-9.984,12.35-14.975
			c34.344-22.546,63.025-51.478,84.143-84.875l1.374-1.249c0,0,0-0.416-0.455-0.416c0.455-0.835,0.911-1.25,1.372-2.079
			c0.456-0.836,0.913-1.666,1.825-2.5c22.862-38.689,36.129-82.375,36.129-129.39C602.59,167.858,468.595,45.954,303.507,45.954
			L303.508,45.958z M553.656,319.302c-0.912,6.655-2.288,13.315-3.655,19.97c-1.83,6.655-3.661,13.314-5.946,19.55
			c-5.484,16.65-13.262,32.04-22.862,46.6c-1.376,2.08-2.749,3.75-3.66,5.825c7.927,5.318,15.416,11.159,22.405,17.475l4.122,3.745
			c-1.373-1.25-2.748-2.5-4.122-3.33c-7.385-5.788-15.347-10.94-23.781-15.39c-8.233-4.58-17.834-8.325-27.896-11.235
			c-13.263-3.745-28.355-5.824-44.353-4.574c-3.665,0.415-6.869,0.829-10.525,1.249c-14.179,2.075-29.721,7.071-45.727,14.976
			c-0.46,0.415-0.917,0.415-1.372,0.83c-3.205,1.665-5.948,2.915-9.152,4.574c-16.459,7.905-31.096,13.73-44.814,18.311
			c-2.748,0.83-5.028,1.665-7.319,2.494c-12.343,5.825-27.893,9.571-46.644,9.15c-2.748,0-5.946,1.25-9.145,2.5
			c-3.204,1.25-5.946,3.331-8.689,5.826c-1.832,1.664-3.204,3.323-4.117,5.409c-0.912,2.08-1.832,4.16-1.832,6.649v0.421
			c0,4.159,1.376,8.32,4.573,13.314c0.457,0.83,0.918,1.665,1.375,2.08c3.197,3.744,9.145,4.99,17.834,4.16
			c7.776-0.83,17.378-2.916,28.809-5.824h2.747c3.201-0.416,6.861-0.831,10.515-1.251c9.151-1.659,19.209-4.159,30.183-8.735
			l-8.682,7.905c-4.476,4.114-9.05,8.138-13.725,12.065l-1.373,1.25c-5.941,4.574-12.345,9.984-19.665,15.39
			c-3.653,2.915-7.77,5.825-11.888,8.74c-35.668,24.959-80.944,49.51-114.788,42.02c-3.198-0.83-6.402-1.665-9.145-2.91
			c0-0.42,0-0.835-0.457-1.664c1.375,0.414,3.199,0.414,4.573,0.829c30.639,2.915,68.594-17.475,100.152-39.525
			c6.858-4.989,13.717-9.984,20.122-14.975c-0.458-0.42-0.914-0.42-0.914-0.835c-3.205-2.495-6.403-4.575-9.607-7.069
			c-17.834,2.494-32.47,0.83-36.585-5.41c-8.685-14.15-10.059-22.05-7.316-26.626c0-1.25,0.456-2.499,0.456-3.329l-2.285-2.079
			c0.917,0.414,1.829,0.414,2.747,0.829c1.824-4.575,5.485-8.319,10.059-11.23c2.285-1.666,5.029-2.499,7.314-3.329
			c1.831-0.836,3.66-1.251,5.492-1.251h1.829c17.378,0,32.008-4.159,43.901-9.569c-3.205,0-6.401,0-9.601-0.415
			c-13.723-0.829-25.611-4.575-35.217-9.149c-2.053-0.512-4.043-1.208-5.942-2.081c-14.636-4.58-30.64-11.235-48.474-19.975
			c-2.291-1.25-4.579-2.08-6.865-3.325c-20.577-10.399-39.785-15.396-57.163-16.645c-25.611-2.08-48.474,3.749-67.226,12.899
			c-1.83-2.915-3.198-5.825-5.029-9.15c-3.591-6.922-6.798-14.003-9.607-21.22c-8.228-22.469-13.262-46.184-13.718-71.15v-3.325
			c0-11.235,0.918-22.05,2.748-32.87C71.647,146.222,176.828,60.518,303.51,60.518c139.018,0,251.976,102.765,251.976,229.244
			C555.485,299.747,555.028,309.731,553.656,319.302L553.656,319.302z"/>
	</g>
</g>
</svg>
