<svg xmlns="http://www.w3.org/2000/svg" version="1.1" width="600px" height="600px" viewBox="0 0 200 200" style="overflow:hidden!important;"><g id="svga-group-wrapper"><g id="svga-group-backs-single"></g><g id="svga-group-humanwrap-move" transform="matrix(1,0,0,1,0,0)"><g id="svga-group-humanwrap"><g id="svga-group-hair-back-move" transform="matrix(1,0,0,1,0,0)"><g id="svga-group-hair-back"><path id="SvgjsPath6945" d="M72.8 197.6s-16.3-1.2-20.2-9.6-3.7-29.1 4-43.6c7.6-14.6 5.2-39.9 5.2-39.9 10.6-20 55.7-3.9 55.2 9.9s-20.5 51.8-26.9 61.9S76 197.4 76 197.4l-3.2.2z" fill="#0b3786" stroke-width="none" opacity="1"></path></g></g><g id="svga-group-humanbody-back"><path id="SvgjsPath4366" d="M77.8 105.9s4.8 37.7 10 55.8c0 0-6.4 8.8-14.5 11.9-28.7 11.2-35 11.2-39.6 15.2-2.4 2.1.2 11.1 1.8 17.2 1.3 5 1.7 13.2 1.7 13.2h132.2s1.6-33-.6-39.8-7.1-2.9-21.9-4.5c-14.8-1.6-28.7-10.3-31-13.2l.3-60-38.4 4.2z" fill="#cb8d60" stroke-width="none" opacity="1"></path></g><g id="svga-group-chinshadow-single"><path id="SvgjsPath4362" d="M85.6 152.8c6.6 3.5 10.7 3.5 10.7 3.5s8 0 19.6-9.5l.2-45.2-38.4 4.2c.1.1 3.6 27.7 7.9 47z" fill="#ac642f" stroke-width="none" opacity="1"></path></g><g id="svga-group-humanbody-front"><path id="SvgjsPath4367" d="M72.1 183.1s14.6-.2 20.4 2.6c5.8 2.9 12.7 2.4 16.1-1s21.6-7 21.6-7-19.7 1.9-25 4.6c-5.3 2.7-22.3-2.8-33.1.8z" fill="#ac642f" stroke-width="none" opacity="1"></path><path id="SvgjsPath4368" d="M74.2 173.2c6.7-1.3 14.7-6.4 14.7-6.4l6.2 5.5c-4.3-7.9-12.7-41.1-12.7-41.1l-.7.7c1.7 10.5 3.9 21.9 6.1 29.7 0 0-6 8.2-13.6 11.6z" fill="#ac642f" stroke-width="none" opacity="1"></path><path id="SvgjsPath4369" d="M170.7 188.5c-.1-2.1-.2-4.1-.4-6.2-.1-1-.3-2.1-.6-3.2-.2-.5-.4-1-.6-1.6-.2-.5-.6-1-1-1.5s-.9-.9-1.5-1.1c-.6-.3-1.1-.4-1.7-.6-1.1-.2-2.2-.2-3.2-.2-2.1 0-4.1.1-6.1.1s-4-.1-6-.2-4-.4-6-.7c-1-.2-2-.4-2.9-.6l-1.5-.4c-.5-.1-1-.3-1.4-.4-3.8-1.1-7.6-2.6-11.2-4.4l-1.3-.7-1.3-.7c-.4-.2-.9-.5-1.3-.8s-.9-.5-1.3-.8-.8-.5-1.3-.8l-1.2-.9-.6-.5-.3-.2-.3-.2c-.2-.2-.4-.3-.5-.5l-.2-.3v-44.6l-.1-15v-.6l-.6.1c-6.4.8-12.9 1.5-19.3 2.3l-19.1 2.3v.5l.1.4.1.9.2 1.8c.1 1.2.3 2.3.4 3.5l.9 7c.6 4.7 1.3 9.4 2.1 14 .8 4.7 1.5 9.3 2.5 14 .9 4.5 1.8 9 3 13.5-1.1 1.4-2.3 2.7-3.6 4-1.3 1.3-2.8 2.6-4.3 3.8-1.5 1.1-3.1 2.2-4.8 3l-1.3.6c-.4.2-.9.3-1.3.5l-2.7 1c-7.2 2.7-14.5 5.3-21.8 7.7l-5.5 1.8c-1.8.6-3.7 1.3-5.5 2.2-.4.2-.9.5-1.3.7-.4.3-.9.5-1.3.9l-.6.5c-.2.2-.5.5-.6.8-.3.5-.4 1.1-.5 1.6-.2 1.1-.1 2.1 0 3.1s.3 2 .4 2.9c.4 1.9.8 3.8 1.3 5.7l.8 2.8c.3.9.5 1.8.7 2.8.4 1.9.7 3.8.9 5.7s.4 3.8.5 5.7v.8h133.4v-.8c.2-4.1.4-8.2.5-12.3s.2-8.2.2-12.3c0-1.8-.1-3.8-.1-5.9zm-67.4 30.3H70.2l-16.5-.1-16-.1c-.1-1.8-.2-3.5-.4-5.3-.2-1.9-.4-3.9-.8-5.8-.2-1-.4-1.9-.7-2.9l-.7-2.8c-.5-1.9-.9-3.7-1.2-5.6-.2-.9-.3-1.9-.4-2.8-.1-.9-.1-1.9 0-2.7.1-.4.2-.8.4-1.1.1-.2.2-.3.3-.4l.5-.4c.3-.3.7-.5 1.1-.8.4-.2.8-.5 1.2-.7 1.7-.8 3.5-1.4 5.3-2l5.5-1.8c7.3-2.4 14.6-5 21.8-7.8l2.7-1c.5-.2.9-.3 1.4-.5l1.4-.6c1.8-.9 3.4-2 5-3.2s3-2.5 4.4-3.9 2.7-2.9 3.8-4.5l.2-.3-.1-.3c-1.3-4.5-2.3-9.1-3.3-13.7s-1.9-9.3-2.7-13.9c-.8-4.6-1.6-9.3-2.4-14l-2.2-13.9 19.3-1.8c6.2-.6 12.3-1.2 18.5-1.8l-.2 14.4-.2 15-.3 30v.4l.2.2.6.7.6.6.3.3.3.2.6.5c.4.3.9.6 1.3.9.4.3.9.6 1.3.9.4.3.9.5 1.3.8s.9.5 1.3.8l1.4.8 1.4.7c.5.2.9.5 1.4.7l1.4.7c1 .4 1.9.8 2.9 1.2s1.9.8 2.9 1.1l1.5.5c.5.2 1 .3 1.5.4.5.1 1 .3 1.5.4l1.5.4c1 .3 2 .4 3 .6 2 .4 4.1.6 6.2.8 2.1.2 4.1.2 6.2.2 2.1 0 4.1-.1 6.1-.1s4 .1 5 1.3c.5.6.9 1.4 1.2 2.3.3.9.4 1.9.6 2.8.3 2 .4 4 .5 6s.1 4.1.2 6.1c.1 7.9-.1 15.8-.4 23.7-10.8.1-21.5.1-32.3.2h-33.1z" fill="#9d521b" stroke-width="none" opacity="1"></path><path id="SvgjsPath4370" d="M150.7 219.2 147 198l-.4 21.2z" fill="#ac642f" stroke-width="none" opacity="1"></path><path id="SvgjsPath4371" d="M47.3 203.5s2.2 11.5 2.9 15.7h3.5l-6.4-15.7z" fill="#ac642f" stroke-width="none" opacity="1"></path></g><g id="svga-group-clothes-single"><path id="SvgjsPath7122" d="M70.5 188.4s17.7 11.1 20.6 13.2c2.9 2.2 13.3 5.2 13.3 5.2s13.5-6.3 15.2-7.7c1.7-1.4 16.3-17.4 16.3-17.4v38H71.7l-1.2-31.3z" fill="#ffffff" stroke-width="none" opacity="1"></path><path id="SvgjsPath7123" d="M73.7 175c.4-1.1 6.3-6.7 6.3-6.7l-5.9.3-19.1 6.5 3.5 1.3s-17.8 6.5-20.2 6.7c-2.5.2-7.2 0-7 2.8 0 0-2.8 1.5-2.8 3.4s6.1 20.2 8.3 30.4h47.1s-7.1-19.1-8.2-23.6c-1.3-4.5-2.4-19.9-2-21.1zm98.9-.1c-1.2-.8-3-.3-3-.3s-.1-2.9-1.2-3-7.7.8-11.9 1.2-13.1-.3-13.1-.3l1.2-1.1c-2.9-.1-16.2-6-17.9-6.5s-5.4-.3-5.4-.3 3.6 2.6 4.2 3.8c.6 1.2 6.9 20.1 6.5 24.5s-5 26.9-5 26.9h45.5c.1 0 1.3-44.2.1-44.9z" fill="#06242e" stroke-width="none" opacity="1"></path><path id="SvgjsPath7124" d="M173.6 177.7c0-.5 0-1-.1-1.5 0-.3 0-.5-.1-.8 0-.1 0-.3-.1-.4 0-.1-.1-.2-.1-.3 0-.1-.2-.3-.3-.3l-.1-.1c-.6-.3-1.2-.5-1.8-.5h-.8c0-.4-.1-.7-.2-1.1-.1-.3-.2-.7-.4-1-.1-.2-.3-.4-.5-.6-.2-.2-.7-.3-.8-.3-.8 0-1.3 0-1.9.1l-1.8.2-7.1.8c-2.3.3-4.6.3-7 .3-1.7-.1-3.5-.1-5.2-.2l1.1-1-1.8-.2c-.8-.1-1.8-.4-2.8-.6-1-.3-1.9-.6-2.9-.9l-5.7-2.1c-1.9-.7-3.8-1.4-5.8-2.1-1-.4-2.1-.4-3.1-.4h-3.1s-.1 0-.1.1l.1.1.1.1.2.1.3.3.7.6c.5.4.9.8 1.3 1.2.4.4.9.9 1.2 1.3.2.5.4 1.1.6 1.6.7 2.3 1.4 4.6 2.1 7 .7 2.3 1.3 4.7 1.9 7 .2 1 .5 2 .7 3-.6.6-1.2 1.3-1.8 1.9-2.4 2.4-4.7 4.9-7.1 7.3l-1.8 1.8c-.3.3-.6.5-.9.7-.3.2-.7.4-1.1.6-1.5.8-3 1.5-4.5 2.3l-8.9 4.3c-3-.9-5.9-1.9-8.8-3-1.5-.6-3-1.2-4.2-2.1-1.4-.9-2.7-1.8-4.1-2.6-2.8-1.7-5.5-3.4-8.3-5.1l-3.4-2c-.6-3.8-1-7.7-1.3-11.6-.1-1.1-.2-2.3-.2-3.4v-.8c0-.2 0-.4.2-.6.3-.4.7-.9 1-1.3.7-.9 1.5-1.7 2.3-2.6l1.2-1.3.6-.6.3-.3.2-.2.1-.1s.1-.1.1-.2h-6.1c-3.2 1-6.4 2-9.7 3-3.2 1-6.4 2-9.6 3.1l-2.1.7 2.1.8 1.3.5c-3.9 1.4-7.9 2.7-11.8 4.1-1.2.4-2.3.8-3.5 1.1-.6.2-1.2.4-1.7.5-.3.1-.5.1-.8.2l-.9.1c-1.2.1-2.5.2-3.8.5-.6.2-1.3.4-1.9.9l-.4.4-.3.6c-.1.2-.1.4-.1.6v.2c-.6.4-1.1.8-1.6 1.3-.5.6-1.1 1.4-1.1 2.3 0 .5.1.9.2 1.2.1.4.2.7.3 1.1.2.7.4 1.4.6 2.2l2.6 8.6c.9 2.9 1.7 5.8 2.5 8.7.8 2.9 1.5 5.8 2.1 8.8l.1.4 136.8.1v-.5c.1-4 0-8 .1-12l.2-12 .2-12v-6zm-5.4-5.3zm-108 46.5-8.9.1c-.2-3.1-.6-6.2-1.1-9.3-.5-3.5-1.1-7-1.7-10.4l-.5-2.6-.3-1.3c0-.2-.1-.5-.2-.8-.1-.3-.3-.5-.4-.7-.6-.9-1.4-1.5-2.1-2-.8-.6-1.5-1-2.3-1.4-3.2-1.7-6.6-2.8-10-3.6 3.2 1.6 6.3 3.1 9.3 5 1.4.9 2.9 1.9 3.7 3.1.1.1.2.3.2.4 0 .1.1.2.1.5l.2 1.3.5 2.6c.7 3.4 1.4 6.9 2.2 10.3.7 3 1.5 6 2.3 9h-2.6l-11.4.2c-.7-2.8-1.5-5.6-2.3-8.4l-2.5-8.7c-.8-2.9-1.7-5.8-2.4-8.7-.2-.7-.4-1.5-.5-2.2-.1-.4-.2-.7-.2-1.1-.1-.4-.1-.7-.1-1 0-.6.4-1.1.9-1.6s1.1-.9 1.7-1.2l.3-.2v-.4c0-.5.1-.8.5-1.1.4-.3.9-.5 1.4-.6 1.1-.2 2.3-.3 3.6-.3h1c.3-.1.7-.1 1-.2.6-.1 1.2-.3 1.8-.5 1.2-.4 2.4-.7 3.6-1.1 4.7-1.5 9.4-3.2 14-4.9l.8-.3c.1.1.2.1.4.1l2.1.6c.5.1.9.1 1.4.2-.5.4-1.1.8-1.6 1.2-1.1.9-2.2 1.7-3.2 2.6s-2.1 1.8-3.2 2.7l-.6.5.4.6c.9 1.3 1.8 2.7 2.6 4 .9 1.3 1.8 2.7 2.6 4 .4.7.8 1.4 1.1 2 .3.7.7 1.4 1 2.1l1.9 4.4c2.4 5.6 4.9 11.2 7.6 16.6-4.2.4-8.1.5-12.1.5zm12-.1c-.8-2.8-1.8-5.5-2.7-8.3-1.1-3-2.2-6.1-3.3-9.1l-1.8-4.5c-.3-.8-.6-1.5-1-2.3-.4-.8-.8-1.5-1.2-2.2-1.6-2.6-3.3-5-5-7.4.8-.8 1.6-1.5 2.4-2.3l3-2.9c2-1.9 4.1-3.7 6.1-5.7-1.6 1.1-3.2 2.2-4.8 3.4-.5-.2-1-.5-1.5-.7-.4-.2-.8-.3-1.3-.5l-.6-.2s-.1 0-.1-.1c-.1 0-.2-.1-.2-.1l-1.2-.4-1.4-.5c2.5-.9 4.9-1.8 7.4-2.7 3.2-1.1 6.3-2.3 9.4-3.5 1.8-.1 3.6-.4 5.6-.6l-.2.1-.3.3-.7.6-1.3 1.2c-.8.8-1.7 1.6-2.5 2.4-.4.4-.8.8-1.2 1.3-.1.1-.2.3-.3.4-.1.2-.1.4-.1.5 0 .3-.1.6-.1.9v3.5c.2 4.6.4 9.2 1.1 13.9.2 1.1.3 2.4.7 3.5.3 1.1.7 2.2 1 3.4.7 2.2 1.4 4.4 2.2 6.6 1.3 3.9 2.7 7.8 4.1 11.6-3.5.4-6.8.4-10.2.4zm15.6 0h-3.2L80 206.4l-2.3-6.5c-.4-1.1-.8-2.2-1.1-3.2-.3-1.1-.5-2.1-.7-3.3-.1-.4-.1-.9-.2-1.3l2.8 1.9 8.1 5.4c1.3.9 2.7 1.8 4 2.8 1.4 1 2.9 1.7 4.5 2.3 3 1.3 6.1 2.3 9.2 3.3l.3.1.3-.1c3.1-1.4 6.2-2.9 9.2-4.4l4.5-2.4c.4-.2.8-.4 1.1-.7.4-.3.8-.6 1.1-.9.6-.6 1.2-1.2 1.8-1.9 2.3-2.5 4.6-5.1 6.8-7.6l1.3-1.5c.2 1 .4 2 .5 2.9l.1.9v.8l-.3 1.8-.6 3.6-1.4 7.1-2.7 13.7c-7.4-.1-14.9-.1-22.3-.2-5.5-.2-10.9-.2-16.2-.2zm50.6 0-10.1-.1c.9-4.4 1.7-8.7 2.5-13.1.4-2.4.9-4.8 1.2-7.2l.6-3.6c.1-.6.2-1.2.2-1.9v-1l-.1-1c-.4-2.5-1-4.9-1.6-7.2-.7-2.4-1.4-4.7-2.2-7-.8-2.3-1.6-4.6-2.5-6.9-.2-.6-.4-1.1-.8-1.7-.4-.6-.9-.9-1.3-1.4-.5-.4-1-.8-1.4-1.1l-.8-.5-.4-.3-.1-.1h1.3c.5 0 1 .1 1.5.1 1 .1 2 .2 2.9.6l5.6 2.4c1.9.8 3.8 1.6 5.7 2.3.9.4 1.9.7 2.9 1.1.5.2 1 .3 1.5.5h-.1l-.7.6c-.4.2-.7.5-1.1.8-.9.7-1.8 1.6-2.6 2.4-1.2-.8-2.5-1.5-3.7-2.1 1.2.9 2.5 1.9 3.7 2.9l1.8 1.5c.6.5 1.3.9 2 1.3 1.4.8 2.8 1.5 4.2 2.2 1.1.6 2.2 1.1 3.4 1.6-1.4 2.6-2.8 5.3-4.1 8l-2.1 4.5c-.7 1.5-1.4 3-1.9 4.7-.4 1.7-.8 3.3-1.1 4.9-.3 1.6-.6 3.2-.9 4.9-.5 3.1-1 6-1.4 8.9zm34.1-11c-.1 3.8-.3 7.6-.4 11.5-4.1-.1-8.1-.2-12.2-.2.4-3.5.6-7 .7-10.6.1-3.9.2-7.8.1-11.7 0-1-.1-2-.1-3l-.1-.8v-.5c0-.4.1-.8.2-1.2.5-1.7 1.4-3.5 2.2-5.2 1.8-3.4 3.7-6.8 5.8-10.1-2.8 2.8-5.1 6-7.2 9.3-1 1.7-2 3.4-2.6 5.4-.2.5-.3 1-.3 1.6V193.2l.1.7c.1.9.1 1.9.1 2.9.1 3.9.2 7.8.4 11.7.1 3.5.3 7 .7 10.6-3.3-.1-6.5-.1-9.8-.1l-11.1-.1c.8-2.8 1.5-5.7 2.3-8.5.8-3.2 1.6-6.4 2.5-9.5.2-.7.6-1.4.9-2.2l1-2.2 2.2-4.4 4.4-8.9.4-.9-.9-.4c-2.9-1.2-5.8-2.4-8.6-3.7-.7-.3-1.4-.7-2.1-1.1-.6-.4-1.3-.9-1.9-1.3-.1 0-.1-.1-.1-.1.5-.1 1-.4 1.4-.6.6-.3 1.1-.7 1.6-1.1.3-.3.6-.6 1-.9l.6.1c2.4.2 4.8.4 7.1.5 2.4.1 4.8.1 7.2-.2l7.1-.8 1.8-.2c.6-.1 1.2-.1 1.6-.1l.1.1c.1.1.2.4.3.6.1.5.2 1.1.3 1.6l.1.9.9-.2c.8-.2 1.7-.2 2.3.1v.2c0 .2.1.5.1.7.1.5.1 1 .1 1.5l.3 6c.1 4 .2 8 .1 12-.4 3.9-.5 7.9-.6 11.9z" fill="#000c0f" stroke-width="none" opacity="1"></path></g><g id="svga-group-head" transform="matrix(1,0,0,1,0,0)"><g id="svga-group-ears-left-move" transform="matrix(1,0,0,1,0,0)"><g id="svga-group-ears-left"><path id="SvgjsPath4314" d="M65.78 91.77s-3.16-4.73-12.23-7.89c0 0-3.02-.66-10.12 10.39 0 0-1.31 5.78 5 15.25 0 0 6.18 3.29 16.3-1.18-.01-.01 4.6-7.5 1.05-16.57z" fill="#cb8d60" stroke-width="none" opacity="1"></path><path id="SvgjsPath4315" d="M64.46 100.36s-5.52-8.22-10.65-11.09c0 0-3.42 2.6-6.31 7.53 0 0 2.89 6.71 4.34 8.49 0 0 3.55 1.37 10.91-.55l1.71-4.38z" fill="#bc7746" stroke-width="none" opacity="1"></path><path id="SvgjsPath4316" d="M43.27 94.23c-.12.71-.12 1.39-.08 2.08.03.69.11 1.37.22 2.05.23 1.36.61 2.68 1.05 3.98.43 1.31 1.01 2.56 1.6 3.8.31.61.64 1.21.97 1.82l1.08 1.76.05.08.08.04c1.35.66 2.75.96 4.17 1.14 1.42.17 2.86.16 4.28.04 1.42-.13 2.83-.43 4.19-.82.69-.18 1.35-.44 2.03-.66l1.97-.8.13-.05.07-.12c.75-1.31 1.22-2.68 1.6-4.09.38-1.4.57-2.85.61-4.3.04-1.44-.04-2.89-.33-4.3-.21-1.42-.66-2.79-1.16-4.13-.73-1.01-1.63-1.86-2.55-2.68-.93-.81-1.92-1.56-2.95-2.24-1.03-.68-2.11-1.29-3.22-1.85-1.11-.56-2.26-1.01-3.42-1.46l-.03-.01h-.02c-.52-.05-.78.08-1.13.18-.32.12-.61.28-.88.45-.55.35-1.05.74-1.53 1.16-.96.83-1.78 1.78-2.56 2.75-1.56 1.95-2.89 4.04-4.24 6.12l-.02.03.02.03zm.31.09a57.62 57.62 0 0 1 2.11-3c.74-.99 1.51-1.94 2.32-2.86.82-.91 1.66-1.8 2.57-2.59.46-.39.94-.76 1.44-1.06.25-.15.51-.28.77-.39.23-.1.56-.17.67-.17l1.68.6 1.69.69c1.12.48 2.22 1.01 3.28 1.61 1.05.61 2.09 1.27 3.04 2.04.95.76 1.86 1.62 2.58 2.59.46 1.34.87 2.71 1.04 4.12.19 1.41.19 2.83.05 4.24-.13 1.41-.44 2.78-.85 4.13a19.68 19.68 0 0 1-1.57 3.71l-1.79.71c-.66.21-1.3.45-1.97.62-1.33.37-2.68.63-4.04.8-1.36.14-2.74.18-4.1.04-1.32-.14-2.67-.42-3.85-.93l-1.05-1.6-1.03-1.75c-.64-1.19-1.26-2.4-1.74-3.66-.5-1.26-.89-2.56-1.14-3.89-.23-1.32-.34-2.71-.11-4z" fill="#bc7746" stroke-width="none" opacity="1"></path><path id="SvgjsPath4317" d="M48.43 94.49c.45-.59.94-1.13 1.41-1.69.98-1.09 1.99-2.13 3.04-3.17l.12-.12.16.12c.88.65 1.69 1.39 2.45 2.18.75.79 1.41 1.67 2.04 2.55 1.23 1.79 2.32 3.68 3.17 5.67l-.08.04c-1.21-1.79-2.43-3.56-3.71-5.27-.64-.85-1.31-1.68-1.98-2.51-.64-.77-1.31-1.53-2.04-2.21-1.07.87-2.05 1.86-2.93 2.92-.88 1.08-1.65 2.25-2.21 3.49.52 1.16 1.05 2.32 1.62 3.45.52 1.01 1.05 2.02 1.66 2.93.66-.58 1.31-1.2 1.92-1.84.7-.76 1.35-1.57 1.77-2.47-.13-.46-.35-.94-.6-1.38-.27-.48-.61-.91-.98-1.33l.06-.07c.45.34.85.75 1.21 1.2.18.22.34.47.48.72.14.26.27.5.38.8l.02.07-.03.09c-.35 1.11-1.03 2.02-1.72 2.88-.7.87-1.47 1.64-2.31 2.38l-.38.34-.3-.41c-.83-1.13-1.41-2.34-1.97-3.55-.56-1.22-1.06-2.45-1.52-3.71l-.05-.15.06-.12c.37-.63.8-1.24 1.24-1.83z" fill="#9d521b" stroke-width="none" opacity="1"></path></g></g><g id="svga-group-ears-right-move" transform="matrix(1,0,0,1,0,0)"><g id="svga-group-ears-right"><path id="SvgjsPath4318" d="M134.22 91.77s3.16-4.73 12.23-7.89c0 0 3.02-.66 10.12 10.39 0 0 1.31 5.78-5 15.25 0 0-6.18 3.29-16.3-1.18.01-.01-4.6-7.5-1.05-16.57z" fill="#cb8d60" stroke-width="none" opacity="1"></path><path id="SvgjsPath4319" d="M135.54 100.36s5.52-8.22 10.65-11.09c0 0 3.42 2.6 6.31 7.53 0 0-2.89 6.71-4.34 8.49 0 0-3.55 1.37-10.91-.55l-1.71-4.38z" fill="#bc7746" stroke-width="none" opacity="1"></path><path id="SvgjsPath4320" d="m156.72 94.21-.02-.03c-1.35-2.08-2.67-4.18-4.24-6.12-.78-.97-1.6-1.92-2.56-2.75-.47-.42-.98-.81-1.53-1.16-.28-.17-.57-.33-.88-.45-.35-.1-.61-.23-1.13-.18h-.02l-.03.01c-1.16.44-2.32.89-3.42 1.46-1.11.56-2.19 1.17-3.22 1.85-1.03.68-2.02 1.43-2.95 2.24-.92.82-1.82 1.67-2.55 2.68-.5 1.34-.95 2.71-1.16 4.13-.29 1.41-.37 2.86-.33 4.3.04 1.44.22 2.89.61 4.3.38 1.41.85 2.78 1.6 4.09l.07.12.13.05 1.97.8c.68.22 1.34.48 2.03.66 1.37.39 2.77.69 4.19.82 1.42.12 2.86.13 4.28-.04 1.43-.18 2.82-.48 4.17-1.14l.08-.04.05-.08 1.08-1.76c.33-.61.66-1.21.97-1.82.59-1.24 1.17-2.49 1.6-3.8.44-1.3.83-2.62 1.05-3.98.1-.68.19-1.36.22-2.05.04-.69.04-1.37-.08-2.08l.02-.03zm-.42 4.1c-.24 1.33-.64 2.64-1.14 3.89-.48 1.27-1.1 2.48-1.74 3.66l-1.03 1.75-1.05 1.6c-1.18.51-2.53.79-3.85.93-1.36.14-2.74.11-4.1-.04a26.73 26.73 0 0 1-4.04-.8c-.67-.17-1.31-.42-1.97-.62l-1.79-.71c-.63-1.15-1.18-2.41-1.57-3.71-.41-1.34-.72-2.72-.85-4.13-.14-1.4-.14-2.83.05-4.24.17-1.41.58-2.78 1.04-4.12.72-.97 1.63-1.83 2.58-2.59.95-.77 1.99-1.43 3.04-2.04 1.06-.61 2.16-1.13 3.28-1.61l1.69-.69 1.68-.6c.11 0 .44.07.67.17.26.11.51.24.77.39.5.3.98.67 1.44 1.06.92.79 1.75 1.68 2.57 2.59.81.92 1.59 1.88 2.32 2.86.75.97 1.43 1.98 2.11 3 .24 1.3.13 2.69-.11 4z" fill="#bc7746" stroke-width="none" opacity="1"></path><path id="SvgjsPath4321" d="M151.57 94.49c-.45-.59-.94-1.13-1.41-1.69-.98-1.09-1.99-2.13-3.04-3.17l-.12-.12-.16.12c-.88.65-1.69 1.39-2.45 2.18-.75.79-1.41 1.67-2.04 2.55-1.23 1.79-2.32 3.68-3.17 5.67l.08.04c1.21-1.79 2.43-3.56 3.71-5.27.64-.85 1.31-1.68 1.98-2.51.64-.77 1.31-1.53 2.04-2.21 1.07.87 2.05 1.86 2.93 2.92.88 1.08 1.65 2.25 2.21 3.49-.52 1.16-1.05 2.32-1.62 3.45-.52 1.01-1.05 2.02-1.66 2.93-.66-.58-1.31-1.2-1.92-1.84-.7-.76-1.35-1.57-1.77-2.47.13-.46.35-.94.6-1.38.27-.48.61-.91.98-1.33l-.06-.07c-.45.34-.85.75-1.21 1.2-.18.22-.34.47-.48.72-.14.26-.27.5-.38.8l-.02.07.03.09c.35 1.11 1.03 2.02 1.72 2.88.7.87 1.47 1.64 2.31 2.38l.38.34.3-.41c.83-1.13 1.41-2.34 1.97-3.55.56-1.22 1.06-2.45 1.52-3.71l.05-.15-.06-.12c-.37-.63-.8-1.24-1.24-1.83z" fill="#9d521b" stroke-width="none" opacity="1"></path></g></g><g id="svga-group-faceshape-wrap"><g id="svga-group-faceshape-single"><path id="SvgjsPath4348" d="M135.9 49.8c-6.7-7.4-11.3-13.2-28.8-17.3-1.8-.4-12.3-.4-14.1 0-17.5 4.1-22.1 9.9-28.8 17.3-7.1 7.8-9.5 29-9.5 29 0 9.6 1.3 32.3 13.3 47.2 17.8 22.2 32.1 22.3 32.1 22.3s14.2 0 32.1-22.3c12-14.9 13.3-37.6 13.3-47.2-.1 0-2.5-21.2-9.6-29z" fill="#cb8d60" stroke-width="none" opacity="1"></path><path id="SvgjsPath4349" d="M107.1 32.5c-1.8-.4-12.3-.4-14.1 0-17.5 4.1-22.1 9.9-28.8 17.3-7.1 7.8-9.5 29-9.5 29 0 9.6 1.3 32.3 13.3 47.2 17.8 22.2 32.1 22.3 32.1 22.3s14.2 0 32.1-22.3c12-14.9 13.3-37.6 13.3-47.2 0 0-2.4-21.2-9.5-29-6.9-7.4-11.5-13.2-28.9-17.3zM142 63.8c.7 2.5 1.1 5 1.6 7.5.4 2.5.7 5 1 7.5-.2 7.4-1.3 14.8-3 22-.9 3.6-1.9 7.1-3.3 10.5-.7 1.7-1.4 3.4-2.2 5s-1.7 3.2-2.7 4.7l-1.5 2.2c-.3.4-3.4 4.2-3.4 4.2l-3.7 4.1-6.1 5.7c-2.8 2.3-5.8 4.5-9 6.2l-1.2.6-1.2.6c-.8.4-1.6.7-2.5 1l-1.3.4c-.4.1-.8.2-1.3.3-.4.1-1.71.43-2.9.4 0 0-1.4-.2-1.9-.3-.4-.1-.9-.2-1.3-.3l-1.3-.4c-.8-.3-1.7-.6-2.5-1l-1.2-.5-1.2-.6c-3.2-1.6-6.3-3.7-9.1-6l-4.1-3.6-3.9-3.9-1-1-.9-1-1.8-2.1c-1.2-1.4-2.3-2.8-3.3-4.4-1-1.5-2-3.1-2.8-4.8-.8-1.6-1.6-3.3-2.3-5.1-.7-1.7-1.3-3.5-1.8-5.3s-1-3.6-1.4-5.4-.8-3.6-1-5.5c-.3-1.8-.5-3.7-.7-5.5-.4-3.7-.5-7.4-.5-11.1.3-2.3.8-4.6 1.2-6.9.5-2.3 1.1-4.6 1.7-6.8.7-2.2 1.4-4.5 2.3-6.6.4-1.1.9-2.1 1.4-3.1s2.59-4.47 6.3-8.1c1.6-1.7 3.3-3.3 5-4.7 3.5-2.8 7.7-4.9 12-6.5l1.6-.6c6.69-2.31 10.6-2.2 11.8-2.3 2.3-.1 4.71-.26 7-.1 3.16.22 6.8 1.4 6.8 1.4 2.3.6 4.5 1.3 6.7 2.3.3.1 1.6.7 1.6.7.5.3 2.6 1.3 3.1 1.7.5.3 5.3 3.7 6.9 5.4 1.7 1.7 3.3 3.4 4.9 5.2 1.7 1.9 2.9 4.2 3.9 6.6 1.1 2.4 1.9 4.8 2.5 7.3z" fill="#9d521b" stroke-width="none" opacity="1"></path></g></g><g id="svga-group-mouth-single-move" transform="matrix(1,0,0,1,0,0)"><g id="svga-group-mouth-single"><path id="SvgjsPath4299" d="M88.89 128.18s0 2.87 5.07 4.6c4.29 1.46 12.9 1.2 16.1-2.4 3.2-3.6 1.59-5.9-.34-7.68-2.13-1.97-8.97-4.61-15.91-1.21-6.94 3.4-4.92 6.69-4.92 6.69z" fill="#da7c87" stroke-width="none" opacity="1"></path><path id="SvgjsPath4300" d="M88.93 128.17c.22 1.22 1.08 2.16 2.05 2.84.97.7 2.1 1.15 3.24 1.51 2.3.67 4.76.78 7.17.69 1.21-.04 2.42-.18 3.61-.43.6-.12 1.18-.29 1.76-.47l.84-.34c.28-.13.54-.28.8-.42 1.05-.6 1.89-1.52 2.53-2.54.3-.52.56-1.07.67-1.65.11-.58.09-1.17-.09-1.72-.35-1.11-1.22-1.99-2.12-2.77-.9-.73-2-1.25-3.12-1.66-1.13-.4-2.3-.66-3.49-.79-1.19-.12-2.39-.16-3.58-.02-2.38.24-4.69 1.02-6.78 2.24-1.04.6-2.05 1.29-2.79 2.22-.38.45-.66.99-.82 1.55-.14.57-.13 1.19.12 1.76zm-.08.02c-.16-.25-.26-.57-.31-.88-.04-.31-.05-.64.01-.95.11-.63.36-1.24.74-1.75.73-1.05 1.73-1.86 2.78-2.53 2.09-1.37 4.52-2.27 7.03-2.57 2.51-.27 5.08.06 7.44.96 1.18.45 2.31 1.04 3.29 1.9.47.43.9.89 1.27 1.41.37.52.69 1.1.84 1.73.16.63.15 1.3 0 1.93-.16.62-.46 1.19-.78 1.72-.69 1.04-1.55 1.98-2.63 2.63-1.06.67-2.23 1.12-3.43 1.46-1.2.33-2.43.56-3.67.67-1.24.1-2.5.1-3.74-.02-1.24-.12-2.48-.34-3.68-.75-.6-.21-1.17-.45-1.73-.74-.28-.14-.55-.31-.82-.47-.25-.19-.53-.35-.76-.57-.49-.39-.93-.87-1.27-1.41-.33-.53-.58-1.16-.58-1.77z" fill="#d26d79" stroke-width="none" opacity="1"></path><path id="SvgjsPath4301" d="M85.24 127.03c1.51 1.69 4.1 2.26 6.29 2.06 3.38-.32 5.95-2.78 9.45-2.67 4.87.15 10.86 2.74 14.33-2.2.69-.98-.96-2.04-1.5-1.03-2.75 5.11-9.76 1.84-14.2 2.03-1.98.09-3.72.87-5.54 1.56-3.17 1.2-5.29.55-8.32-.5-.44-.16-.83.39-.51.75z" fill="#cb5f6c" stroke-width="none" opacity="1"></path></g></g><g id="svga-group-eyes-left-move" transform="matrix(1,0,0,1,0,0)"><g id="svga-group-eyes-left"><g id="svga-group-eyesback-left"><path id="SvgjsPath4875" d="M80.2 77.2c7.5 0 13.5 5.8 13.5 13s-6 13-13.5 13-13.5-5.8-13.5-13 6-13 13.5-13z" fill="#ffffff" stroke-width="none" opacity="1"></path></g><g id="svga-group-eyesiriswrapper-left" transform="matrix(1,0,0,1,0,0)"><g id="svga-group-eyesiriscontrol-left" transform="matrix(1,0,0,1,0,0)"><g id="svga-group-eyesiris-left"><path id="SvgjsPath4386" d="M80.2 84.6c3.1 0 5.6 2.5 5.6 5.6s-2.5 5.6-5.6 5.6-5.6-2.5-5.6-5.6 2.5-5.6 5.6-5.6z" fill="#4e60a3" stroke-width="none" opacity="1" stroke="none"></path><path id="SvgjsPath4387" d="M80.2 87.2c1.7 0 3 1.3 3 3s-1.3 3-3 3-3-1.3-3-3 1.3-3 3-3z" fill="#000000" stroke-width="none" opacity="1"></path><path id="SvgjsPath4388" d="m79.5 87.8-.6-.6c-.2-.2-.5-.3-.8-.3s-.6.1-.8.3c-.2.2-.3.5-.3.8s.1.6.3.8l.6.6c.2.2.5.3.8.3s.6-.1.8-.3c.4-.6.4-1.2 0-1.6zm2.7 5.1c1 0 1-1.5 0-1.5-.9 0-.9 1.5 0 1.5z" fill="#ffffff" stroke-width="none" opacity="1"></path></g></g></g><g id="svga-group-eyesfront-left"><path id="SvgjsPath4883" d="M80.2 76.7c-7.8 0-14.1 6.1-14.1 13.6s6.3 13.6 14.1 13.6 14.1-6.1 14.1-13.6S88 76.7 80.2 76.7zm-3.1 16.8c-5-2-8.7-5.1-9-5.9s6.6-2.2 9.6-1.9c3 .3 10.2 3.4 11.2 4.9 1 1.5 1.9 4.5 1.9 4.5-4.6 1.6-8.7.4-13.7-1.6z" fill="#cb8d60" stroke-width="none" opacity="1"></path><path id="SvgjsPath4884" d="M89.7 89.6C88 87.4 78.2 85 77.4 84.8c-.3-.1-2.1 0-4.3 0-.5-.4-2.1-1.9-2.6-3.3-.1-.3-.4-.4-.7-.3s-.4.4-.3.7c.4 1.2 1.4 2.3 2.1 3-.6.1-1.2.1-1.8.1-.8-.5-2.2-1.6-2.9-2.8-.2-.3-.5-.3-.7-.2-.3.2-.3.5-.2.7.5.9 1.3 1.7 2.1 2.3-1.3.1-2.5.1-3.3.2-.3 0-.4.5-.1.6l3.4 1.8v.1c.1.2.2.2.3.4l1.2 1.2c.8.7 1.7 1.3 2.7 1.9 1.8 1.2 3.8 2.2 5.9 2.9 2 .8 4.2 1.5 6.3 1.7 2.2.3 4.4.1 6.4-.7.1.2.1.3.2.5.2.3.7.2.6-.2-.4-1.8-1-4.4-2-5.8zm-5.3 5.9c-2.1-.3-4.2-1.1-6.2-1.8-2-.8-4-1.7-5.8-2.8l-2.7-1.8c-.4-.3-.8-.7-1.2-1.1l-.1-.1c1.1-.3 6.8-1.9 8.8-2 .4 0 .7.1 1.1.2 2.5.7 9.5 3.8 10.3 4.9.5.6 1.4 2.6 2.2 4.3-2.1.4-4.3.5-6.4.2z" fill="#000000" stroke-width="none" opacity="1"></path></g></g></g><g id="svga-group-eyes-right-move" transform="matrix(1,0,0,1,0,0)"><g id="svga-group-eyes-right"><g id="svga-group-eyesback-right"><path id="SvgjsPath4876" d="M119.8 77.2c7.5 0 13.5 5.8 13.5 13s-6 13-13.5 13-13.5-5.8-13.5-13 6-13 13.5-13z" fill="#ffffff" stroke-width="none" opacity="1"></path></g><g id="svga-group-eyesiriswrapper-right" transform="matrix(1,0,0,1,0,0)"><g id="svga-group-eyesiriscontrol-right" transform="matrix(1,0,0,1,0,0)"><g id="svga-group-eyesiris-right"><path id="SvgjsPath4389" d="M119.8 85.3c2.7 0 4.9 2.2 4.9 4.9s-2.2 4.9-4.9 4.9-4.9-2.2-4.9-4.9 2.2-4.9 4.9-4.9z" fill="#4e60a3" stroke-width="none" opacity="1" stroke="none"></path><path id="SvgjsPath4390" d="M119.8 87.5c1.5 0 2.7 1.2 2.7 2.7s-1.2 2.7-2.7 2.7-2.7-1.2-2.7-2.7 1.2-2.7 2.7-2.7z" fill="#000000" stroke-width="none" opacity="1"></path><path id="SvgjsPath4391" d="M119.2 88.1c-.2-.2-.3-.4-.5-.5s-.4-.3-.7-.3c-.2 0-.5.1-.7.3-.2.2-.3.4-.3.7 0 .2.1.5.3.7.2.2.4.3.5.5s.4.3.7.3c.2 0 .5-.1.7-.3.3-.5.3-1.1 0-1.4zm2.4 4.5c.8 0 .8-1.3 0-1.3s-.8 1.3 0 1.3z" fill="#ffffff" stroke-width="none" opacity="1"></path></g></g></g><g id="svga-group-eyesfront-right"><path id="SvgjsPath4885" d="M119.8 76.7c-7.8 0-14.1 6.1-14.1 13.6s6.3 13.6 14.1 13.6 14.1-6.1 14.1-13.6-6.3-13.6-14.1-13.6zm3.4 16.1c-4.7 1.9-8.4 3.1-13 3.6 0 0 1.7-3.9 2.7-5.4s9.3-5 12-5.1 7.1 1.9 6.7 2.7c-.3.7-3.7 2.3-8.4 4.2z" fill="#cb8d60" stroke-width="none" opacity="1"></path><path id="SvgjsPath4888" d="M135.6 86.6c-.8-.1-2-.2-3.3-.4.8-.7 1.1-1.4 1.1-1.4.1-.3.1-.6-.2-.8-.3-.2-.6-.1-.7.2 0 0-.6 1-1.8 1.8-.5-.1-1-.1-1.4-.2 1-1.2 1.2-2.7 1.2-2.8 0-.3-.2-.6-.5-.7s-.6.2-.6.5c0 0-.2 1.7-1.5 2.7l-.1.1c-2-.2-3.7-.4-4-.3-.8.2-9.9 2.2-11.7 4.5-1.1 1.5-1.9 4.7-2.3 6.7-.1.3.3.4.4.2.1-.1.1-.3.2-.4 4-.3 7.8-1.4 11.6-2.8 1.9-.7 3.8-1.5 5.7-2.4.9-.4 1.9-.9 2.8-1.5.2-.1.4-.3.7-.5l.3-.3 4-1.8c.4-.1.4-.4.1-.4zm-5.1 2.6c-.9.5-1.8.9-2.8 1.3-.9.4-1.9.8-2.8 1.2-.9.4-1.9.8-2.9 1.2-1.9.7-3.8 1.5-5.8 2-1.8.6-3.7.9-5.5 1.3.8-1.8 2-4.3 2.6-5 .9-1.2 11.4-4.9 12.9-5 1.3-.1 4.1 2.2 4.8 2.7-.2.1-.4.2-.5.3z" fill="#000000" stroke-width="none" opacity="1"></path></g></g></g><g id="svga-group-facehighlight-single"></g><g id="svga-group-eyebrows-left-move" transform="matrix(1,0,0,1,0,0)"><g id="svga-group-eyebrows-left-rotate" transform="matrix(1,1.7453292519943295e-9,-1.7453292519943295e-9,1,1.2995914744351467e-7,-1.3809918186780124e-7)"><g id="svga-group-eyebrows-left"><path id="SvgjsPath5382" d="M63.58 81.61s2.73-6.07 7.31-8.29c5.98-2.9 21.19 2.04 22.07 2.67.87.63.35 3.77-1.13 3.92-1.48.15-8.53-2.96-13.8-4.33-5.27-1.38-9.96 0-14.45 6.03z" fill="#2a232b" stroke-width="none" opacity="1"></path><path id="SvgjsPath5383" d="M63.57 81.64c.12-.13.26-.26.39-.42l.37-.43c.24-.28.49-.55.74-.81.5-.52 1.02-1.03 1.58-1.49 1.09-.93 2.31-1.71 3.61-2.24 1.3-.53 2.7-.8 4.1-.78 1.41.01 2.8.26 4.18.67 2.78.78 5.52 1.77 8.27 2.72 1.38.47 2.75.96 4.22 1.28.19.03.37.07.57.07.2.01.44-.01.64-.1.41-.18.69-.52.88-.87.2-.35.32-.73.4-1.12.08-.39.1-.79.05-1.2-.03-.2-.07-.4-.16-.61-.08-.2-.23-.4-.44-.51-.36-.18-.7-.28-1.05-.41-.7-.23-1.39-.45-2.09-.66a90.5 90.5 0 0 0-4.22-1.12c-2.83-.68-5.67-1.3-8.59-1.47-1.45-.08-2.93-.04-4.37.27-.72.16-1.44.39-2.11.75-.66.35-1.28.77-1.85 1.24-1.14.95-2.13 2.09-2.98 3.3-.43.6-.82 1.25-1.18 1.9-.18.33-.35.66-.52.99-.08.17-.16.34-.24.5l-.11.26-.06.13-.02.06-.01.03-.01.02c-.01.01-.01.04.01.05zm.03-.07c1.45-2.5 3.19-4.99 5.44-6.73.56-.43 1.16-.82 1.78-1.13.61-.32 1.28-.52 1.97-.67 1.37-.27 2.8-.32 4.23-.3 1.43.02 2.86.15 4.29.34 1.43.18 2.85.43 4.27.75 1.42.32 2.81.7 4.2 1.13.69.21 1.39.45 2.06.71.33.13.68.27.98.42.24.13.34.5.36.84.04.7-.13 1.44-.48 2.02-.17.29-.41.53-.67.62-.13.05-.26.06-.42.05-.15-.01-.33-.05-.5-.09-.68-.16-1.37-.39-2.05-.62L87 78.17c-2.74-.99-5.47-2.05-8.3-2.83-1.41-.39-2.9-.66-4.37-.62-1.48.03-2.95.36-4.3.96-1.35.59-2.56 1.49-3.64 2.5-.55.5-1.04 1.05-1.51 1.62-.23.29-.47.57-.69.87-.11.14-.24.3-.31.44-.08.14-.16.31-.28.46z" fill="#1b141c" stroke-width="none" opacity="1"></path></g></g></g><g id="svga-group-eyebrows-right-move" transform="matrix(1,0,0,1,0,0)"><g id="svga-group-eyebrows-right-rotate" transform="matrix(1,1.7453292519943295e-9,-1.7453292519943295e-9,1,1.365545756470965e-7,-2.1299837271726574e-7)"><g id="svga-group-eyebrows-right"><path id="SvgjsPath5384" d="M136.97 82.09s-2.84-5.43-7.28-7.34c-5.81-2.49-20.12 2.3-20.92 2.88s-.19 3.42 1.23 3.52c1.41.1 8-2.86 12.98-4.22 4.95-1.34 9.48-.19 13.99 5.16z" fill="#2a232b" stroke-width="none" opacity="1"></path><path id="SvgjsPath5385" d="m137 82.06-.01-.02-.02-.03-.03-.06-.06-.12-.12-.23c-.08-.15-.16-.31-.25-.45-.18-.3-.35-.59-.54-.88-.37-.59-.77-1.15-1.2-1.69-.86-1.08-1.84-2.09-2.97-2.92-.56-.41-1.17-.78-1.81-1.09-.64-.31-1.34-.49-2.04-.63-1.39-.25-2.8-.25-4.18-.15-2.77.22-5.46.84-8.13 1.51-1.33.35-2.66.7-3.97 1.1-.66.2-1.31.41-1.96.64-.33.12-.64.22-.98.39-.2.1-.33.29-.4.47s-.11.37-.13.56a3.636 3.636 0 0 0 .52 2.1c.2.32.48.61.88.77.19.07.42.1.62.08.19-.01.37-.04.54-.09 1.38-.32 2.67-.79 3.96-1.25 2.58-.92 5.16-1.87 7.78-2.64 1.3-.4 2.61-.65 3.96-.69 1.33-.04 2.68.17 3.93.62 1.26.45 2.45 1.13 3.53 1.95.54.41 1.06.86 1.56 1.32.25.23.49.47.74.71l.36.38c.13.14.27.26.39.37.02.01.03-.02.03-.03zm-.34-.4c-.08-.11-.21-.26-.32-.39-.22-.27-.45-.52-.69-.77-.47-.5-.97-.99-1.51-1.43-1.06-.89-2.25-1.66-3.55-2.18-1.3-.52-2.72-.78-4.13-.78-1.42-.01-2.82.26-4.14.65-2.66.76-5.22 1.78-7.79 2.74l-1.92.71c-.64.23-1.29.45-1.93.62-.16.04-.32.07-.47.09-.15.02-.27.01-.4-.03-.25-.08-.49-.29-.66-.54-.35-.51-.55-1.18-.53-1.82.01-.31.09-.64.31-.76.28-.15.6-.28.92-.41.64-.25 1.28-.48 1.93-.69 1.3-.42 2.63-.8 3.95-1.12 1.34-.32 2.68-.57 4.04-.77 1.36-.2 2.72-.34 4.07-.4s2.72-.05 4.03.18c.66.11 1.3.28 1.9.56.61.27 1.19.6 1.75.98 2.21 1.53 3.97 3.75 5.45 5.97-.13-.15-.22-.3-.31-.41z" fill="#1b141c" stroke-width="none" opacity="1"></path></g></g></g><g id="svga-group-nose-single-move" transform="matrix(1,0,0,1,0,0)"><g id="svga-group-nose-single"><path id="SvgjsPath4464" d="M90.92 105.88s-1.67 3.06.49 3.96c2.15.9 2.71-.76 3.47-1.32.76-.56 1.74.21 2.36 1.81.63 1.6 4.58 1.67 5.21.83.63-.83.9-1.94 1.94-2.29 1.04-.35 1.53 1.53 2.43 1.74.9.21 3.2-.21 1.53-4.79-1.67-4.58-5.35-9.1-8.2-9.03-2.84.06-6.87 4.58-9.23 9.09z" fill="#c38253" stroke-width="none" opacity="1"></path><path id="SvgjsPath4465" d="M90.96 105.91c-.26.52-.46 1.08-.54 1.65-.06.56-.04 1.19.32 1.61.34.43.91.61 1.44.69.27.02.53.02.77-.06s.45-.22.64-.4c.19-.18.36-.4.55-.63.19-.23.38-.5.76-.69.19-.09.41-.13.62-.12.21.02.41.08.57.17.34.18.58.43.79.69.2.26.37.53.51.82.07.14.13.29.19.43l.04.11.04.07.07.13c.26.33.74.59 1.26.74.52.15 1.08.24 1.63.25.28 0 .56-.01.82-.05.26-.04.53-.12.7-.23.06-.04.16-.15.24-.27.08-.11.16-.23.24-.36.16-.24.31-.5.49-.75.35-.49.84-.99 1.56-1.01.37.02.64.26.85.48.21.23.38.47.57.69.18.22.38.43.6.55.21.11.52.11.77.07.54-.07.97-.47 1.12-.98.17-.51.13-1.08.04-1.63-.21-1.11-.68-2.18-1.17-3.23-.5-1.04-1.09-2.04-1.73-2.99-.65-.94-1.39-1.84-2.21-2.6-.82-.75-1.75-1.45-2.74-1.67-.95-.26-2 .2-2.94.8-.94.61-1.83 1.35-2.66 2.16-1.65 1.6-3.12 3.48-4.21 5.56zm-.09-.05c1.1-2.08 2.32-4.11 3.83-5.96.76-.92 1.6-1.79 2.61-2.5.5-.36 1.06-.66 1.67-.88.6-.23 1.34-.29 2-.14 1.32.31 2.33 1.11 3.21 1.95.87.86 1.62 1.82 2.27 2.82.66 1.01 1.21 2.07 1.68 3.18.46 1.1.84 2.25.99 3.46.06.6.07 1.24-.17 1.85-.22.61-.82 1.09-1.46 1.15-.32.03-.63.04-.96-.12-.3-.16-.5-.41-.69-.64-.19-.23-.36-.47-.56-.67-.19-.2-.41-.37-.65-.37-.22-.01-.49.14-.69.3a2.5 2.5 0 0 0-.53.63c-.15.24-.27.5-.41.76-.07.13-.14.26-.22.4-.08.13-.15.26-.32.41-.3.24-.61.33-.92.41-.31.07-.62.11-.93.13-.62.03-1.24 0-1.86-.15-.6-.16-1.26-.4-1.74-1-.05-.08-.1-.17-.15-.25l-.07-.13-.04-.09c-.05-.13-.11-.25-.17-.37-.12-.24-.25-.48-.41-.68-.31-.41-.72-.7-1.01-.56-.16.05-.36.26-.56.46-.2.21-.42.44-.68.63-.26.2-.56.36-.9.43-.33.07-.66.04-.98-.02-.31-.08-.59-.18-.87-.33-.14-.08-.28-.15-.39-.27l-.17-.16-.14-.2c-.36-.54-.35-1.2-.25-1.78.17-.61.37-1.17.64-1.7z" fill="#9d521b" stroke-width="none" opacity="1"></path></g></g><g id="svga-group-hair-front"><path id="SvgjsPath6943" d="M145.4 55c-.9-2.7-3.2-10-3.6-10.7-.4-.7-5.2-4.1-8.2-5 0 0 .7-4.5-4.3-7.7 0 0-3.9-5.5-9.8-5.9 0 0-11.3-7.7-19.1-6.4 0 0-23.1-5.7-42.7 9.5s-18 37.7-17.8 43c.2 5.2 2.7 15.4 10.7 28.8 7.9 13.4 3.6 26.6-1.8 36.1-5.5 9.5-16.6 25.2-13.4 37.7 3.2 12.5 5.7 12.2 15.2 20.4s9.5 15.4 8.2 19.3c0 0 5-3.9 1.6-16.1 0 0 3.2 2.5 4.1 7.9 0 0 1.6-5.9-.7-13.4s-.7-12.4 2.1-16.7c.3-.4.6-1.1 1-1.9 1.1-1.4 4.7-6.7 6-8.8 6.2-9.6 5.7-17.7-.1-29.2l-.3-.3c.7-7.2 1.2-17-.3-24.2-2.7-12.7-6.8-21.8-7-27.4-.2-5.7-2.5-15.9 5-25.6s14-12.4 19.5-13.2c7.3-1 20.1-1.9 25.2-.8 5.1 1.1 8.4 2.8 8.4 2.8s5.2 6.1 8.4 11.3c3.2 5.2 5.4 12.7 6.4 16.8.9 4.1 5.4 16.8 5.4 16.8s2.9-10.4 3.4-15.4c.4-5.2-.5-19-1.5-21.7z" fill="#1b4795" stroke-width="none" opacity="1"></path><path id="SvgjsPath6944" d="M70.9 33.9C58.8 39.1 52.6 53.4 54.3 66c1.3 9.1 5.9 17 10 25 .6 1.4 1.3 2.7 2 4 2.8 6 4.9 12.2 4.8 19.1-.2 10.2-4.2 19.9-9.6 28.4-4.8 7.5-11.2 13.8-15.8 21.4-4 6.6-5.9 14.7-2 21.8 5.1 9.2 17.4 15.5 14.8 27.6-.1.3.4.4.5.1 1.9-5.8-.8-11.2-4.4-15.8-5.5-6.9-12.9-12.2-11.9-22 1-9.4 7.8-16.3 13.4-23.4 4.6-5.8 8.8-12.1 11.9-18.9 2.6-5.9 4-11.8 4.2-17.6 1.5 16.6-1.2 32.6-10.2 47.4-3.9 6.4-8.5 12.8-7.3 20.7 1.6 10.1 10.4 18.6 5.2 29.1-.2.4.4.8.7.4 4.7-6.8.8-15-2-21.6-2.8-6.7-3.8-12.6-.6-19.4 2.1-4.5 5.2-8.4 7.5-12.8 8-15.1 11-34.4 6.3-51-.1-.7-.2-1.3-.3-2 .1 0 .1-.1.1-.2-.1-.4-.2-.7-.3-1.1-.6-2.7-1.4-5.3-2.4-8-2.1-7-3.9-13.9-3.5-21.4.5-9.8 4.5-18 11.8-24.4.2-.2-.1-.6-.3-.4-13.3 8.2-14.4 24.8-11.1 39.4-.7-1.4-1.4-2.7-2.1-4.1-2.9-7.9-4.6-16.2-2.6-24.8 3-12.7 15.6-23.8 28.9-17.3.3.2.6-.3.3-.5-11.1-7.2-24 1.5-28.6 12.1-3.3 7.5-3.3 15.6-1.5 23.3-4.3-9.6-7-19.3-2.3-30.1 7.4-17.1 31-22 42.5-5.9.3.4 1 0 .7-.4-6-10-19.6-13.2-30.2-8.8zm33.2-13.6c4.4.6 8.7 1.6 12.8 4.1 6.9 4.2 10.7 11.4 9.9 19.3 0 .4.6.5.7.1 1.6-7.6-1.4-13.5-6.5-17.6 6.3 1.9 9.4 7.1 9.8 13.8 0 .2.3.3.4 0 .5-2.7.1-5.3-1.1-7.6.7.6 1.4 1.2 1.9 2.1.8 1.4 1.1 2.8 1.4 4.4.1.3.5.2.5-.1.3-2.9-1.9-7.3-4.7-8.2h-.1c-2.2-3.1-5.8-5.4-9.7-6h-.2c-5.9-4-13.8-6.1-20.6-6.2-.7-.1-1.4-.3-2.1-.4-14.2-2.4-29 2.1-40 11.3C44.7 39.4 38.4 54.6 39.1 70c.4 7.6 2.6 14.8 6.1 21.6 4.4 8.6 10.2 16.8 9.3 26.9-1.7 20.4-24.5 35.5-19.5 57 0 .2.1.2.3.2v.7c.9 7.8 7.8 13.7 14 17.6.2.1.3-.1.2-.2-6.1-5.4-13.6-10.6-13.3-19.8.3-10.2 9.4-17.2 15.2-24.6 8.2-10.4 11.9-24 10.2-37.1-2.1-16.1-13.9-29-15.4-45.2-1.2-14.9 7.5-30.2 20.9-36.7 16.7-8.1 36.1-1.1 46.8 13.1.2.3.7 0 .5-.3C107.2 31 92 24.5 78.1 26c-13.7 1.5-25.2 11.2-30.3 23.9-6.6 16.4 1 30.6 7.6 45.6 9 20.4 6.4 40.9-8.5 57.7-4.8 5.5-10.5 11.7-11.5 19.1-.6-16.4 12.1-28.8 17.7-43.5 2.4-6.2 3.4-12.8 1.7-19.4-1.7-6.6-5.5-12.3-8.6-18.3C31.1 62 47.7 25.4 80.6 19.6c18.3-3.2 40.5 5.2 42.3 26.1 0 .3.5.3.5 0-.2-12.2-8.7-21.2-19.3-25.4zm39 25.7c.2-.2.2-.4-.1-.6h-.1v-.1c-1.2-3.1-6.2-6.3-9.5-5.9-.2 0-.3.3-.1.4 1.6.8 3.3 1.1 4.8 2 1.3.8 2.2 1.8 3.1 2.8-3-1.4-6.4-2.3-9.6-2.4-.4 0-.4.6-.1.6 3.9.8 7.3 1.8 11 3.4.4 1.5.7 3 1.1 4.6-5.2-.4-9.9-2-14.7-4.2-.3-.1-.5.2-.3.4 4.5 3 9.8 4.4 15.1 4.8.7 3.2 1.4 6.5 1.8 9.8-3.4-1.7-6.9-3-10.2-5-3.4-2.1-6.3-4.7-9.4-7-.3-.2-.5.2-.3.4 4.6 5.6 13 10.7 20 12.4.2 1.5.3 3 .4 4.5 0 1.1.1 2.2 0 3.3-5.2-2.6-9.1-5.9-12.9-10.3-.2-.2-.6.1-.4.3 2.8 5 8 9 13.3 11-.1 2.5-.3 5.1-.6 7.6-2.9-1.6-5.2-3.7-7.4-6.1-.2-.2-.6.1-.5.4 1.7 3 4.6 5.2 7.6 6.6h.1c-.2 1.6-.5 3.2-.8 4.8-1.8-.8-3.1-2-4-3.8-.1-.3-.6-.1-.5.2.6 2 2.3 3.8 4.4 4.5-.2.9-.4 1.7-.5 2.6-.3-.2-.6-.4-.9-.7l-1.2-1.2c-.2-.2-.6.1-.4.3.6 1.1 1.5 2.2 2.7 2.7.3.1.4-.1.5-.3.2-.1.3-.2.4-.4 3.6-13.4 3.5-29.4-1.8-42.4zM64.4 205.8c.7-3.1.5-6.3-.2-9.3-.3-1.5-.7-3-1.2-4.5-.5-1.4-1-3-1.3-4.6-.3-1.6-.3-3.3-.1-4.9.2-1.6.8-3.2 1.4-4.7 1.4-3 3.3-5.5 5.2-8 1.9-2.5 3.9-4.9 5.3-7.6.8-1.3 1.3-2.8 1.8-4.2.2-.7.4-1.5.5-2.2l.2-1.1.1-1.1c.3-3.1-.1-6.2-.9-9.2-.7-3-1.8-6-2.9-8.9 1.4 2.8 2.7 5.7 3.6 8.8.9 3 1.4 6.2 1.3 9.4-.1 3.2-1 6.4-2.5 9.3-1.5 2.9-3.5 5.4-5.4 7.9-1.9 2.5-3.8 5-5.1 7.7-.7 1.4-1.2 2.8-1.4 4.3-.2 1.5-.3 3-.1 4.5.2 1.5.6 2.9 1.1 4.5.5 1.5.8 3.1 1 4.7.2 1.6.3 3.2.2 4.8.2 1.4 0 2.9-.6 4.4z" fill="#002b76" stroke-width="none" opacity="1"></path></g><g id="svga-group-glasses-single-move" transform="matrix(1,0,0,1,0,0)"><g id="svga-group-glasses-single"><path id="SvgjsPath6398" d="M68 79c-3.8-.3-8.4-.1-9.1 3.8-.7 3.8 2 11.4 5.5 15.3 3.5 3.9 8.3 6.2 11.4 7.1 3.1.9 8.2 1.2 11.2-.3 3-1.4 5.8-4 7-8.2 1.2-4.3.5-8.1 0-9-.6-.9-4.2-4-11.6-6.5C74.9 78.6 68 79 68 79z" fill="url(#SvgjsLinearGradient6399)" opacity="1"></path><path id="SvgjsPath6404" d="M131.1 79.8c3.6-.2 7.9.2 8.6 3.8.7 3.7-1.7 10.9-4.9 14.7-3.2 3.8-7.7 6-10.7 6.8-2.9.8-7.9 1.1-10.8-.3-2.9-1.4-5.8-4-7-8.2-1.2-4.3-.6-8.1-.1-8.9.6-.8 4-3.9 11.2-6.2 7.1-2.3 13.7-1.7 13.7-1.7z" fill="url(#SvgjsLinearGradient6405)" opacity="1"></path><path id="SvgjsPath6410" d="M139.1 78.5c-5.4-1-11.7-.7-16.9.6-6 1.6-11 3.8-14.2 5.9-1.6 1-2.4 2.4-2.8 3.8l-.7-.2c-2.8-.9-5.9-1-8.7-.1l-.9.3c-.4-1.5-1.2-2.9-2.9-3.9-3.3-2.1-8.4-4.5-14.7-6.3-5.4-1.5-12.1-2-17.9-1.1-5.8.9-2.8 7.5-.7 12.7 2.1 5.1 6.2 11.2 13.4 14.1 7.5 3 11.7 2.6 16.1.6 4.7-2.2 6.5-8.1 6.8-11.1.1-1.3.2-2.6 0-3.9l1.1-.3c2.6-.8 5.4-.7 8 .1l.9.3c-.1 1.3 0 2.6.1 3.9.3 3.1 2.2 8.9 6.8 11.1 4.3 2 8.4 2.4 15.5-.5 6.8-2.8 10.5-8.7 12.4-13.6 2-5.2 4.7-11.4-.7-12.4zM93.6 96.9c-.9 3-3.8 6.6-7.3 7.9-3.5 1.3-7.9.6-10.3 0-2.5-.6-10.1-3.5-13.4-11-3.3-7.7-2.3-11.1-1.8-11.9s3.8-3.3 18.9-.1C94.4 84.9 94 89.6 94 89.6c.3 1.6.4 4.2-.4 7.3zm42.8-2.7c-2.9 7.2-10.1 9.9-12.5 10.6s-6.6 1.2-10 0c-3.4-1.3-6.4-4.8-7.3-7.9-.9-3.1-.8-5.6-.6-7.2 0 0-.4-4.7 14-7.4 14.3-2.8 17.4-.4 17.9.5.5.8 1.5 4.1-1.5 11.4z" fill="#26120b" stroke-width="none" opacity="1"></path><path id="SvgjsPath6411" d="M139.1 78.5c-3-.6-6.2-.7-9.3-.5-3.1.2-6.2.8-9.2 1.7-3 .9-5.9 2-8.7 3.4-1.4.7-2.8 1.4-4 2.3-1.2.8-2 2.1-2.3 3.5l-.1.3-.4-.1c-.8-.3-1.6-.5-2.5-.7-.8-.2-1.7-.2-2.6-.2-.9 0-1.7.1-2.6.2-.8.1-1.7.4-2.5.7l-.4.1-.1-.4c-.2-1-.7-1.9-1.4-2.7-.7-.8-1.7-1.3-2.7-1.9-2-1.1-4.1-2.1-6.2-3-4.3-1.8-8.9-3.2-13.6-3.7-2.4-.3-4.8-.4-7.1-.3-1.2.1-2.4.2-3.5.3-1.2.2-2.3.5-2.9 1.4-.7.8-.8 1.9-.7 3 .1 1.1.4 2.2.7 3.2.7 2.1 1.6 4.2 2.5 6.2 1.8 4 4.6 7.7 8.3 10.3 1.8 1.3 3.9 2.3 6.1 3 2.1.7 4.3 1.3 6.6 1.5 2.2.2 4.4-.2 6.4-1 1-.4 2-.8 2.8-1.5.8-.6 1.5-1.4 2.1-2.2 1.2-1.6 2-3.6 2.5-5.5.2-1 .4-2 .4-3 .1-1 .1-2.1 0-3.1v-.3l.3-.1c.8-.2 1.6-.5 2.5-.7.9-.2 1.8-.2 2.6-.2s1.8.1 2.6.3c.9.2 1.7.4 2.5.7l.3.1v.3c-.1 1.3 0 2.7.1 4 .2 1.3.5 2.6 1 3.8.9 2.4 2.4 4.8 4.7 6.2 2.3 1.3 5.1 2.2 7.9 2.1 2.8-.1 5.5-.9 8.1-2 5.3-2 9.2-6.4 11.5-11.3.6-1.2 1.1-2.5 1.6-3.8.5-1.3 1-2.6 1.3-3.9.4-1.3.6-2.7.3-4.1-.2-1.2-1.5-2.1-2.9-2.4zm0-.1c1.4.2 2.8 1.2 3.1 2.6.3 1.4.1 2.8-.3 4.1-.3 1.3-.8 2.7-1.3 3.9-.5 1.3-.9 2.6-1.5 3.8-1.1 2.5-2.7 4.8-4.6 6.9-1.9 2-4.3 3.7-7 4.8-2.6 1.1-5.4 2-8.4 2.2-3 .2-5.9-.7-8.4-2.1-2.5-1.6-4.1-4.1-5-6.6-.5-1.3-.9-2.6-1-4-.2-1.4-.3-2.8-.1-4.2l.3.4c-.8-.3-1.6-.5-2.4-.7-.8-.2-1.6-.2-2.4-.2-.8 0-1.7.1-2.4.2-.8.1-1.6.4-2.4.6l.3-.4c.3 4.3-.6 8.6-3.1 12.1-.7.9-1.4 1.6-2.3 2.3-.9.7-1.9 1.1-3 1.5-2.1.8-4.4 1.2-6.8 1-2.3-.2-4.6-.8-6.7-1.6-2.2-.8-4.3-1.8-6.1-3.1-3.8-2.7-6.5-6.5-8.3-10.5-.9-2-1.7-4.1-2.5-6.2-.3-1.1-.6-2.2-.8-3.3-.1-1.1 0-2.3.7-3.2.7-.9 2-1.3 3.1-1.5 1.2-.2 2.4-.3 3.6-.4 2.4-.1 4.8-.1 7.2.2 4.8.5 9.4 1.9 13.9 3.6 2.2.9 4.3 1.9 6.3 3 1 .6 2.1 1.2 2.9 2 .8.9 1.4 1.9 1.6 3l-.5-.3c.8-.2 1.7-.5 2.6-.7s1.8-.2 2.7-.2c.9 0 1.8.1 2.7.3.9.2 1.8.4 2.6.7l-.4.2c.3-1.5 1.3-2.9 2.6-3.8 1.3-.9 2.7-1.6 4.1-2.2 2.8-1.3 5.8-2.4 8.9-3.3 3-.9 6.2-1.4 9.3-1.6 3 0 6.2.1 9.2.7zM93.6 96.9c-.5 1.6-1.3 3.1-2.4 4.5-1.1 1.3-2.4 2.5-4.1 3.3s-3.6 1.1-5.4 1.1c-1.9 0-3.8-.2-5.6-.7-1.9-.5-3.6-1.3-5.2-2.2-1.6-.9-3.1-2.1-4.4-3.4-1.3-1.3-2.4-2.8-3.3-4.4-.8-1.6-1.5-3.3-2.1-5-.6-1.7-1-3.5-1.1-5.3 0-.9 0-1.8.3-2.7.1-.4.5-.9.9-1.2.4-.3.9-.5 1.3-.6 1.9-.6 3.9-.6 5.9-.6 2 .1 3.9.3 5.9.6 3.8.6 7.7 1.4 11.3 2.6 1.8.6 3.6 1.4 5.2 2.4.8.5 1.6 1.1 2.2 1.8.6.7 1.2 1.5 1.2 2.5.3 2.5.1 4.9-.6 7.3zm-.1 0c.6-2.3.8-4.8.3-7.2-.1-.8-.6-1.5-1.2-2.1-.6-.6-1.4-1.1-2.2-1.6-1.6-.9-3.3-1.6-5.2-2.2-3.6-1.2-7.4-1.9-11.2-2.5-1.9-.3-3.8-.5-5.7-.6-1.9-.1-3.9-.1-5.6.4-.9.3-1.7.6-1.9 1.4-.3.8-.4 1.7-.4 2.5 0 1.7.4 3.5.9 5.2.5 1.7 1.2 3.4 2 4.9.9 1.6 2 3 3.3 4.3 2.7 2.5 6.1 4.2 9.6 5.2 3.5.8 7.4 1.1 10.7-.2 3.2-1.6 5.6-4.4 6.6-7.5zm42.9-2.7c-1.4 3.4-4 6.4-7.2 8.5-1.6 1-3.4 1.9-5.3 2.4s-3.9.7-5.9.7c-2-.1-4-.5-5.7-1.6-1.7-1-3-2.4-4.1-3.9-1.1-1.5-1.8-3.3-2.1-5.1-.3-1.8-.5-3.7-.2-5.6 0-1.1.7-1.9 1.4-2.6.7-.7 1.5-1.3 2.4-1.8 1.8-1 3.7-1.7 5.6-2.3 3.9-1.1 7.9-1.8 11.9-2.2 2-.2 4-.3 6.1-.1 1 .1 2 .3 3 .6.5.2 1 .4 1.4.7.2.2.4.4.5.6.1.2.2.5.2.7.4 1.9.2 3.8-.2 5.6-.4 2-1 3.7-1.8 5.4zm0 0c.7-1.7 1.3-3.5 1.6-5.3.3-1.8.5-3.7-.1-5.4-.1-.2-.1-.4-.3-.6-.1-.2-.2-.3-.4-.4l-1.2-.6c-.9-.3-1.9-.4-2.8-.5-1.9-.1-3.9 0-5.9.2-2 .2-4 .5-5.9.9-2 .3-3.9.8-5.8 1.3-1.9.6-3.8 1.2-5.5 2.1-.9.4-1.7 1-2.4 1.6-.7.6-1.3 1.4-1.3 2.2-.3 1.8-.3 3.7.1 5.5.2.9.4 1.8.7 2.6.3.8.8 1.6 1.4 2.4 1.1 1.5 2.4 2.8 4.1 3.7 1.6.9 3.6 1.3 5.4 1.3 1.9 0 3.8-.2 5.7-.7 1.8-.5 3.6-1.2 5.2-2.2 1.6-.9 3.2-2.1 4.4-3.5 1.3-1.3 2.2-2.9 3-4.6z" fill="#070201" stroke-width="none" opacity="1"></path></g></g></g></g></g><rect id="svga-credit-rect" width="200" height="15" x="0" y="185" fill="#ecf0f1" opacity="0.5" style="display: none;"></rect><text id="svga-credit-text" font-family="Avenir Next, Roboto, Helvetica, Arial, sans-serif" font-size="10px" text-anchor="start" font-weight="400" size="10px" anchor="start" weight="400" fill="#333333" x="33.40447998046875" y="182.60824704170227" style="display: none;"><tspan id="SvgjsTspan4293" dy="13" x="33.40447998046875">Created on AvatarMaker.com</tspan></text></g><defs id="SvgjsDefs4245"><linearGradient id="SvgjsLinearGradient6399" x1="76.749" y1="123.1046" x2="76.749" y2="96.0963" gradientTransform="matrix(1 0 0 -1 0 202)" gradientUnits="userSpaceOnUse" class="svga-on-canvas-glasses-gradient-single-0-null"><stop id="SvgjsStop6400" stop-opacity="1" stop-color="#899ba1" offset="0" ></stop><stop id="SvgjsStop6401" stop-opacity="0.6554" stop-color="#7490b3" offset="0.3446" ></stop><stop id="SvgjsStop6402" stop-opacity="0.2966" stop-color="#6589c0" offset="0.7034" ></stop><stop id="SvgjsStop6403" stop-opacity="0" stop-color="#6086c4" offset="1" ></stop></linearGradient><linearGradient id="SvgjsLinearGradient6405" x1="-1740.6141" y1="122.2748" x2="-1740.6141" y2="96.09" gradientTransform="matrix(-1 0 0 -1 -1618 202)" gradientUnits="userSpaceOnUse" class="svga-on-canvas-glasses-gradient-single-1-null"><stop id="SvgjsStop6406" stop-opacity="1" stop-color="#899ba1" offset="0" ></stop><stop id="SvgjsStop6407" stop-opacity="0.6554" stop-color="#7490b3" offset="0.3446" ></stop><stop id="SvgjsStop6408" stop-opacity="0.2966" stop-color="#6589c0" offset="0.7034" ></stop><stop id="SvgjsStop6409" stop-opacity="0" stop-color="#6086c4" offset="1" ></stop></linearGradient></defs></svg>