<svg xmlns="http://www.w3.org/2000/svg" viewBox="867 360 132 126"><g class="logo__item" data-item="Image" data-item-type="image"><g class="logo__item__inner"><path fill="none" d="M958.034 430.564c0-1.165-.582-1.664-1.747-1.664h-3.91c-1.166 0-1.832.5-1.832 1.664v.832c-.832 0-1.414.084-1.997.167-2.58.333-5.408 1.165-8.404 2.663-.333.166-.832.332-1.165.582-.25.166-.915.25-.915.416v-6.823c0-1.165-.832-1.997-1.997-1.997h-3.91c-1.166 0-2.414.832-2.414 1.997v8.987s-.666 0-1.082-.084c-2.33.084-4.327-.333-6.074-.915a11.566 11.566 0 0 1-2.33-.999c-.166-.083-.25-.083-.416-.166-3.162-1.082-6.574-2.58-10.568-4.826-.416-.25-1.165-.416-1.165-.666v-5.741c0-1.664-1.497-2.663-3.162-2.663h-5.658c-1.664 0-2.829.999-2.829 2.663v2.995c-5.825.167-9.736 2.247-13.147 4.743.25.583.5 1.165.832 1.83 3.412-1.83 7.489-2.995 12.149-2.579 3.245.25 6.656 1.249 10.4 3.329.417.25.833.416 1.166.665 3.245 1.748 6.24 2.996 8.82 3.995.333.166.749.25 1.082.416 1.747.915 3.91 1.58 6.407 1.83.582.083 1.165.083 1.747.083-2.163 1.082-4.743 1.914-7.988 1.914h-.333c-.25 0-.582.083-.998.25a9.934 9.934 0 0 0-1.332.666c-.748.499-1.497 1.248-1.83 2.246-.167-.083-.333-.083-.5-.166l.417.416c-.084.25-.084.416-.084.666-.499.915-.25 2.496 1.332 5.325.665 1.248 3.411 1.58 6.657 1.082.582.416 1.164.915 1.747 1.414.083.083.166.083.166.167-1.165.998-2.33 1.997-3.66 2.995-5.742 4.41-12.649 8.488-18.224 7.905-.333 0-.582-.083-.832-.166 0 .083 0 .166.083.333.583.25 1.082.499 1.664.582 6.158 1.498 14.396-3.412 20.886-8.404.75-.583 1.498-1.165 2.164-1.748 1.331-1.081 2.496-2.163 3.578-3.078l.25-.25a76.89 76.89 0 0 0 2.496-2.413l1.58-1.581c-1.996.832-3.827 1.415-5.491 1.747-.666.084-1.332.167-1.914.25h-.5c-2.08.582-3.827 1.082-5.242 1.165-1.58.166-2.746 0-3.245-.832-.083-.167-.166-.333-.25-.416-.582-.999-.915-1.914-.832-2.663v-.083c0-.5.167-.915.333-1.331.167-.417.5-.75.75-1.082.498-.5.998-.832 1.58-1.165.583-.333 1.248-.5 1.664-.5 3.412.084 6.241-.665 8.488-1.83.416-.166.915-.333 1.331-.5 2.496-.915 5.16-2.08 8.155-3.66.499-.25 1.081-.583 1.664-.916.083-.083.166-.083.25-.166a28.881 28.881 0 0 1 8.32-2.996c.666-.083 1.249-.166 1.914-.25 2.913-.25 5.659.167 8.072.916a25.406 25.406 0 0 1 5.076 2.247 28.655 28.655 0 0 1 4.327 3.078c.25.25.499.5.748.666l-.748-.749a35.484 35.484 0 0 0-4.078-3.495c.25-.416.333-.749.5-1.165-1.748-1.248-3.745-2.33-6.241-3.162v-1.997z" data-part-id="logo__item--logo_0__0"/><path fill="none" d="M900.87 394.368c.332-.333.831-.5 1.247-.5.5 0 .916.167 1.248.5l18.307 18.306 1.497-1.498-21.052-20.969-23.132 23.05c.083 4.992.832 9.735 2.496 14.229v-13.73l19.388-19.388z" data-part-id="logo__item--logo_0__1"/><path fill="none" d="m947.633 413.84.999.998 4.743-4.743c.25-.25.582-.333.915-.333.333 0 .749.083.998.333l13.564 13.396v2.913c0-1.332.582-2.58.915-3.911l-15.394-15.31-6.74 6.656z" data-part-id="logo__item--logo_0__2"/><path fill="none" d="M923.086 416.419v1.414c-.832.25-.333.583-.416.832l10.734-10.817c.25-.25.5-.333.832-.333.333 0 .583.083.832.333l10.318 10.318.999-.999-12.065-12.148-11.234 11.4z" data-part-id="logo__item--logo_0__3"/><path fill="none" d="M924.834 366.742c-23.133 0-42.188 17.058-45.35 39.275l19.388-19.388a4.53 4.53 0 0 1 3.245-1.33 4.53 4.53 0 0 1 3.245 1.33l21.219 21.219 5.325-5.325a3.215 3.215 0 0 1 4.494 0l8.903 8.903 6.74-6.74a3.215 3.215 0 0 1 4.494 0l13.73 13.73c.249-1.914.415-3.911.415-5.825 0-25.296-20.47-45.849-45.848-45.849z" data-part-id="logo__item--logo_0__4"/><path fill="#00425A" d="m923.17 411.26 3.411-3.412-21.219-21.135a4.53 4.53 0 0 0-3.245-1.332 4.53 4.53 0 0 0-3.245 1.332l-19.388 19.304a42.9 42.9 0 0 0-.5 6.574v.666l23.05-23.05 21.135 21.053z" data-part-id="logo__item--logo_0__5"/><path fill="#1F8A70" d="M896.459 424.074c0-1.664 1.165-2.663 2.83-2.663h5.657c1.665 0 3.162.999 3.162 2.663v5.741c0 .25.666.416 1.082.666 3.994 2.247 7.24 3.745 10.568 4.826v-14.062l2.829-2.58c.083-.333-.333-.582.5-.832v-1.414l-6.658 6.324c0 .332-.749.499-1.165.499-.416 0-.832-.167-1.165-.5-.665-.665-.665-1.664 0-2.33l7.656-7.655-18.306-18.306c-.333-.333-.832-.5-1.249-.5-.499 0-.915.167-1.248.5l-19.47 19.305v13.73c.831 1.414 1.164 2.912 1.83 4.243 3.411-2.496 7.322-4.576 13.147-4.743v-2.912z" data-part-id="logo__item--logo_0__6"/><path fill="#00425A" d="M955.372 410.095c-.25-.25-.583-.333-.916-.333-.332 0-.665.083-.915.333l-4.826 4.743 5.575 5.575c.666.665.666 1.664 0 2.33-.666.665-1.664.665-2.33 0l-5.575-5.576-1.165.999 2.912 3.079v10.318c.832-.083 1.665-.167 2.497-.167v-.832c0-1.165.665-1.664 1.83-1.664h3.911c1.165 0 1.748.5 1.748 1.664v2.08c2.496.833 4.576 1.914 6.324 3.163 1.747-2.913 2.829-6.075 4.493-9.32v-2.996l-13.563-13.396z" data-part-id="logo__item--logo_0__7"/><path fill="#1F8A70" d="M954.373 403.854c-.832 0-1.664.333-2.247.915l-6.74 6.74 2.33 2.33 6.657-6.657 15.31 15.31c.25-1.33.5-2.662.666-3.993l-13.73-13.73a3.141 3.141 0 0 0-2.246-.915z" data-part-id="logo__item--logo_0__8"/><path fill="#BFDB38" d="M934.153 407.515c-.333 0-.666.083-.915.333l-10.818 10.817-2.662 2.58v14.062c0 .083.333.083.499.167.749.333 1.498.665 2.33.998 1.83.583 3.661.916 5.991.916.416 0 1.082.083 1.082.083v-9.07c0-1.165 1.331-1.997 2.413-1.997h3.91c1.166 0 1.998.832 1.998 1.997v6.823c0-.166.582-.25.832-.416.416-.166.582-.416.998-.582 2.913-1.498 5.659-2.33 8.155-2.663v-10.318l-2.912-3.079-10.152-10.235c-.25-.25-.416-.416-.749-.416z" data-part-id="logo__item--logo_0__9"/><path fill="#BFDB38" d="m921.672 412.757-7.656 7.656c-.665.665-.665 1.664 0 2.33.333.332.75.499 1.165.499.416 0 1.165-.167 1.165-.5l6.324-6.323 11.4-11.4 12.315 12.148 5.575 5.576c.666.665 1.664.665 2.33 0 .666-.666.666-1.665 0-2.33l-5.575-5.575-.999-.999-2.33-2.33-8.986-8.903a3.215 3.215 0 0 0-4.494 0l-5.325 5.325-3.412 3.412-1.497 1.414z" data-part-id="logo__item--logo_0__10"/><path fill="#FC7300" d="M924.834 363.83c-30.04 0-54.42 24.38-54.42 54.42 0 7.821 1.664 15.393 4.66 22.133v.167c3.661 8.32 9.236 15.227 16.226 20.636.25.332.5.582.749.915.5.666.998 1.248 1.414 1.83.666.333 1.332.666 1.997 1.082 1.082.167 2.08.416 2.996.832.25.084.416.25.666.333.333 1.082.665 2.496 1.664 3.745.333.416.666.749 1.165 1.165.083.083.166.166.333.25.749.498 1.664.998 2.829 1.414H907.526c.998-.083 1.914-.167 2.829-.333.999-.166 2.08-.5 3.162-.999.915-.332 1.914-.832 3.079-1.414 1.914-.999 4.327-2.33 7.489-4.077a167.258 167.258 0 0 1 6.24-3.412s4.494-2.746 1.831.166l-.166.167c-1.997 1.997-7.24 6.157-15.311 9.236-1.415.5-2.83.999-4.41 1.498-1.165.333-2.33.666-3.495.915-.166.5-.333.915-.416 1.332-.083.166-.083.416-.083.582-.083.582 0 .999.083 1.331.582 1.498 2.912 1.332 5.242.583l.75-.25h.082l1.332-.416s4.077-.998 12.065-4.992c2.247-1.165 4.826-2.497 7.739-4.078 0 0 4.077-2.246 1.664.083l-.25.25c-.998.832-2.829 2.08-5.159 3.412-3.245 1.83-7.405 3.744-11.732 5.325a51.99 51.99 0 0 1-4.743 1.498v.499c-.084.416-.084.832 0 1.165 0 .25.083.5.166.666.832 2.413 4.577.915 7.572-.25.167-.083.333-.166.583-.25.25-.083.499-.166.749-.332 2.829-1.165 6.74-3.079 11.899-6.075 0 0 3.494-1.997 1.414.084-.166.166-.333.332-.582.499-1.665 1.331-5.492 3.661-9.403 5.492-.666.333-1.415.665-2.08.915-.167.25-.333.5-.416.749-.167.416-.25.749-.167.998 1.165 2.58 18.64-4.909 27.959-15.893.582-.665 1.165-1.331 1.664-2.08.749-1.082 1.498-1.997 2.247-2.995a54.354 54.354 0 0 0 15.31-16.975l.25-.25s0-.083-.083-.083c.083-.167.166-.25.25-.416.083-.167.166-.333.332-.5 4.16-7.738 6.574-16.475 6.574-25.878-.333-30.039-24.714-54.42-54.752-54.42zm45.515 54.669c-.166 1.331-.416 2.663-.665 3.994-.333 1.331-.666 2.663-1.082 3.91-.998 3.33-2.413 6.408-4.16 9.32-.25.416-.5.75-.666 1.165a36.642 36.642 0 0 1 4.077 3.495l.75.749c-.25-.25-.5-.5-.75-.666a28.655 28.655 0 0 0-4.327-3.078c-1.498-.916-3.245-1.665-5.076-2.247-2.413-.749-5.159-1.165-8.07-.915-.667.083-1.25.166-1.915.25-2.58.415-5.408 1.414-8.32 2.995-.084.083-.167.083-.25.166-.583.333-1.082.583-1.665.915-2.995 1.581-5.658 2.746-8.154 3.662-.5.166-.915.333-1.332.499-2.246 1.165-5.075 1.914-8.487 1.83-.5 0-1.082.25-1.664.5-.583.25-1.082.666-1.581 1.165-.333.333-.583.665-.749 1.082-.166.416-.333.832-.333 1.33v.084c0 .832.25 1.664.832 2.663.083.166.167.333.25.416.582.749 1.664.998 3.245.832 1.415-.166 3.162-.583 5.242-1.165h.5c.582-.083 1.248-.166 1.913-.25 1.665-.332 3.495-.832 5.492-1.747l-1.58 1.581a76.89 76.89 0 0 1-2.497 2.413l-.25.25c-1.081.915-2.246 1.997-3.578 3.078-.665.583-1.414 1.165-2.163 1.748-6.49 4.992-14.728 9.902-20.886 8.404-.582-.166-1.165-.333-1.664-.582 0-.084 0-.167-.083-.333.25.083.582.083.832.166 5.575.583 12.481-3.495 18.223-7.905 1.248-.998 2.496-1.997 3.661-2.995-.083-.084-.166-.084-.166-.167-.583-.499-1.165-.915-1.748-1.414-3.245.499-5.908.166-6.657-1.082-1.58-2.83-1.83-4.41-1.331-5.325 0-.25.083-.5.083-.666l-.416-.416c.167.083.333.083.5.166.332-.915.998-1.664 1.83-2.246.416-.333.915-.5 1.331-.666.333-.167.666-.25.999-.25h.333c3.162 0 5.824-.832 7.988-1.914-.583 0-1.165 0-1.747-.083-2.497-.166-4.66-.915-6.408-1.83a5.778 5.778 0 0 1-1.081-.416c-2.663-.916-5.575-2.247-8.82-3.995-.417-.25-.833-.416-1.249-.665-3.744-2.08-7.239-3.079-10.401-3.329-4.66-.416-8.82.75-12.232 2.58-.333-.583-.582-1.165-.915-1.83a45.648 45.648 0 0 1-1.748-4.244c-1.497-4.494-2.413-9.237-2.496-14.23v-.665c0-2.247.167-4.41.5-6.574 3.078-22.134 22.216-39.275 45.266-39.275 25.295 0 45.848 20.553 45.848 45.849 0 1.997-.083 3.994-.333 5.908z" data-part-id="logo__item--logo_0__11"/></g></g></svg>